<?xml version="1.0" encoding="UTF-8"?>
<svg width="16px" height="25px" viewBox="0 0 16 25" version="1.1" xmlns="http://www.w3.org/2000/svg" xmlns:xlink="http://www.w3.org/1999/xlink">
    <!-- Generator: Sketch 41.2 (35397) - http://www.bohemiancoding.com/sketch -->
    <title>Page 1</title>
    <desc>Created with Sketch.</desc>
    <defs></defs>
    <g id="HomeBase" stroke="none" stroke-width="1" fill="none" fill-rule="evenodd">
        <g id="1b--initial-alt-alt" transform="translate(-26.000000, -10.000000)" fill="#666666">
            <g id="Page-1" transform="translate(26.000000, 10.000000)">
                <path d="M3,10.5434211 L6.77302632,10.5434211 L6.77302632,8 L3,8 L3,10.5434211 Z M3.82105263,9.72302632 L5.95328947,9.72302632 L5.95328947,8.82105263 L3.82105263,8.82105263 L3.82105263,9.72302632 Z" id="Fill-1"></path>
                <path d="M8,10.5434211 L11.7723684,10.5434211 L11.7723684,8 L8,8 L8,10.5434211 Z M8.82105263,9.72302632 L10.9532895,9.72302632 L10.9532895,8.82105263 L8.82105263,8.82105263 L8.82105263,9.72302632 Z" id="Fill-2"></path>
                <path d="M3,14.5434211 L6.77302632,14.5434211 L6.77302632,12 L3,12 L3,14.5434211 Z M3.82105263,13.7223684 L5.95328947,13.7223684 L5.95328947,12.8203947 L3.82105263,12.8203947 L3.82105263,13.7223684 Z" id="Fill-3"></path>
                <path d="M8,14.5434211 L11.7723684,14.5434211 L11.7723684,12 L8,12 L8,14.5434211 Z M8.82105263,13.7223684 L10.9532895,13.7223684 L10.9532895,12.8203947 L8.82105263,12.8203947 L8.82105263,13.7223684 Z" id="Fill-4"></path>
                <path d="M3,17.5434211 L6.77302632,17.5434211 L6.77302632,15 L3,15 L3,17.5434211 Z M3.82105263,16.7223684 L5.95328947,16.7223684 L5.95328947,15.8203947 L3.82105263,15.8203947 L3.82105263,16.7223684 Z" id="Fill-5"></path>
                <path d="M8,17.5434211 L11.7723684,17.5434211 L11.7723684,15 L8,15 L8,17.5434211 Z M8.82105263,16.7223684 L10.9532895,16.7223684 L10.9532895,15.8203947 L8.82105263,15.8203947 L8.82105263,16.7223684 Z" id="Fill-6"></path>
                <path d="M3,21.5434211 L6.77302632,21.5434211 L6.77302632,19 L3,19 L3,21.5434211 Z M3.82105263,20.7230263 L5.95328947,20.7230263 L5.95328947,19.8210526 L3.82105263,19.8210526 L3.82105263,20.7230263 Z" id="Fill-7"></path>
                <path d="M7.58881579,0 L0.410526316,4.34671053 L0.410526316,6.84802632 L1.3125,6.84802632 L1.3125,23.8697368 L0,23.8697368 L0,24.6907895 L15.2585526,24.6907895 L15.2585526,23.8697368 L13.9046053,23.8697368 L13.9046053,6.84802632 L14.8065789,6.84802632 L14.8065789,4.34671053 L13.2085526,3.3625 L13.2085526,0.409210526 L10.8710526,0.409210526 L10.8710526,1.96776316 L7.58881579,0 Z M1.23223684,4.79868421 L7.58881579,0.941447368 L12.5519737,3.93486842 L13.1657895,4.30460526 L13.9453947,4.75657895 L13.9453947,5.98684211 L1.23223684,5.98684211 L1.23223684,4.79868421 Z M11.6480263,2.45986842 L11.6480263,1.22828947 L12.3453947,1.22828947 L12.3453947,2.86907895 L11.6480263,2.45986842 Z M2.09342105,6.84802632 L13.0855263,6.84802632 L13.0855263,23.8697368 L11.6480263,23.8697368 L11.6480263,18.5789474 L7.87631579,18.5789474 L7.87631579,23.8697368 L2.09342105,23.8697368 L2.09342105,6.84802632 Z M8.69736842,23.8282895 L10.8289474,23.8282895 L10.8289474,19.3986842 L8.69736842,19.3986842 L8.69736842,23.8282895 Z" id="Fill-8"></path>
                <path d="M7.35328947,2 C6.61447368,2 6,2.61447368 6,3.35328947 C6,4.09210526 6.61447368,4.70657895 7.35328947,4.70657895 C8.09210526,4.70657895 8.70657895,4.09210526 8.70657895,3.35328947 C8.70657895,2.61447368 8.09210526,2 7.35328947,2 M7.35328947,3.8875 C7.06578947,3.8875 6.81907895,3.64078947 6.81907895,3.35328947 C6.81907895,3.06644737 7.06578947,2.81973684 7.35328947,2.81973684 C7.64078947,2.81973684 7.8875,3.06644737 7.8875,3.35328947 C7.8875,3.64078947 7.64078947,3.8875 7.35328947,3.8875" id="Fill-9"></path>
            </g>
        </g>
    </g>
</svg>