<?xml version="1.0" encoding="UTF-8"?>
<svg width="34px" height="35px" viewBox="0 0 34 35" version="1.1" xmlns="http://www.w3.org/2000/svg" xmlns:xlink="http://www.w3.org/1999/xlink">
    <!-- Generator: Sketch 41.2 (35397) - http://www.bohemiancoding.com/sketch -->
    <title>Page 1</title>
    <desc>Created with Sketch.</desc>
    <defs></defs>
    <g id="InspectorPage" stroke="none" stroke-width="1" fill="none" fill-rule="evenodd">
        <g id="1---Unit-Select" transform="translate(-42.000000, -79.000000)" fill="#777777">
            <path d="M54.6172464,79 L54.6172464,79.0031997 C53.9173104,78.9752023 53.2077753,79.1815834 52.6174293,79.6279426 C51.6391187,80.3654752 51.2111578,81.5901632 51.4487361,82.7468574 L48.8737715,82.7468574 C48.5306029,82.7468574 48.2490287,83.0276318 48.2490287,83.3716003 L48.2490287,83.9963432 L42.6247429,83.9963432 C42.2807743,83.9963432 42,84.2779174 42,84.6210861 L42,113.368858 C42,113.716026 42.2807743,113.993601 42.6247429,113.993601 L66.3721717,113.993601 C66.7161402,113.993601 66.9977145,113.716026 66.9977145,113.368858 L66.9977145,84.6210861 C66.9977145,84.2779174 66.7161402,83.9963432 66.3721717,83.9963432 L60.7478859,83.9963432 L60.7478859,83.3716003 C60.7478859,83.0276318 60.4663117,82.7468574 60.123143,82.7468574 L57.5545779,82.7468574 C57.7729579,81.6749554 57.4201902,80.53106 56.5642684,79.7783288 C56.0075193,79.2871737 55.3171824,79.0279974 54.6172464,79 Z M54.5700507,80.2590849 L54.5700507,80.2654843 C54.9924121,80.2814828 55.4043745,80.4374686 55.7387439,80.7310417 C56.4074827,81.3213878 56.5666682,82.2932989 56.1235087,83.0716277 C55.9795219,83.3244046 56.0299173,83.6467752 56.2482973,83.8435572 L56.251497,83.8435572 C56.2610961,83.8555561 56.273095,83.8619555 56.2826942,83.8683549 L56.295493,83.8811537 C56.3010925,83.8931526 56.3106916,83.8931526 56.3202907,83.899552 C56.3354893,83.9123509 56.3514879,83.9187503 56.3666865,83.9307492 L56.3794853,83.9307492 C56.4730767,83.9811446 56.579467,84.009142 56.6858573,84.009142 L59.4976002,84.009142 L59.4976002,84.5306943 C59.4856013,84.5962883 59.4856013,84.6682818 59.4976002,84.7338758 L59.4976002,87.0304658 C59.4856013,87.0960598 59.4856013,87.1680532 59.4976002,87.2336472 L59.4976002,87.7583992 L49.4985144,87.7583992 L49.4985144,87.2304475 C49.5113133,87.1648535 49.5113133,87.0960598 49.4985144,87.0304658 L49.4985144,84.7306761 C49.5113133,84.665082 49.5113133,84.5962883 49.4985144,84.5306943 L49.4985144,84.009142 L52.3110573,84.009142 C52.8046121,84.0211409 53.1109841,83.4747909 52.8518078,83.0556292 C52.839009,83.0156329 52.8238104,82.9748366 52.8046121,82.93724 C52.4206473,82.1309137 52.6582255,81.1750011 53.3701604,80.6374503 C53.7269278,80.3686749 54.151689,80.2406866 54.5700507,80.2590849 Z M71.3717146,83.9995429 C71.028546,83.9995429 70.7469717,84.2811172 70.7469717,84.6242858 L70.7469717,86.5025141 L68.8687434,86.5025141 C68.5255748,86.5025141 68.2472003,86.7840883 68.2472003,87.1304566 L68.2472003,94.6329707 C68.2376011,95.4736938 69.5062851,95.4736938 69.496686,94.6329707 L69.496686,87.7551995 L70.7469717,87.7551995 L70.7469717,108.375714 C70.7469717,108.718883 71.028546,109.000457 71.3717146,109.000457 L71.5340997,109.000457 L71.5340997,110.878685 C71.5340997,111.221854 71.8124743,111.503428 72.1596425,111.503428 L72.6220003,111.503428 L72.6220003,114 L73.871486,114 L73.871486,111.503428 L74.3370435,111.503428 C74.6842117,111.503428 74.9625863,111.218654 74.9593866,110.872286 L74.9593866,109.000457 L75.1217717,109.000457 C75.4649403,109.000457 75.7465146,108.718883 75.7465146,108.375714 L75.7465146,86.8304841 L75.7465146,86.7864881 L75.7465146,84.6274855 C75.7465146,84.2843169 75.4649403,84.0027426 75.1217717,84.0027426 L71.3717146,84.0027426 L71.3717146,83.9995429 Z M43.2494858,85.2498286 L48.2490287,85.2498286 L48.2490287,86.4993143 L45.1245143,86.4993143 C44.7805458,86.4993143 44.4989715,86.7808886 44.4989715,87.1240572 L44.4989715,110.872286 C44.4989715,111.218654 44.7805458,111.497029 45.1245143,111.497029 L63.8724002,111.497029 C64.2163688,111.497029 64.4971431,111.218654 64.4971431,110.872286 L64.4971431,87.1240572 C64.4971431,86.7808886 64.2163688,86.4993143 63.8724002,86.4993143 L60.7478859,86.4993143 L60.7478859,85.2498286 L65.7474288,85.2498286 L65.7474288,112.747315 L43.2494858,112.747315 L43.2494858,85.2498286 Z M71.9972574,85.2498286 L74.4962289,85.2498286 L74.4962289,86.5025141 L71.9972574,86.5025141 L71.9972574,85.2498286 Z M45.7492572,87.7464003 L48.2490287,87.7464003 L48.2490287,88.3711432 C48.2490287,88.7151118 48.5306029,88.9958861 48.8737715,88.9958861 L60.123143,88.9958861 C60.4663117,88.9958861 60.7478859,88.7151118 60.7478859,88.3711432 L60.7478859,87.7464003 L63.2476574,87.7464003 L63.2476574,110.244343 L45.7492572,110.244343 L45.7492572,87.7464003 Z M71.9972574,87.7464003 L74.4962289,87.7464003 L74.4962289,93.9922293 L71.9972574,93.9922293 L71.9972574,87.7464003 Z M51.3863418,91.4956575 C51.2239567,91.4956575 51.0703707,91.5644513 50.9551812,91.6836404 L48.8865704,93.7394524 L48.070645,92.9299264 C47.4802989,92.3179824 46.5739818,93.229899 47.1899255,93.8178452 L48.4458107,95.0641313 C48.6897884,95.3049093 49.0833524,95.3049093 49.3273301,95.0641313 L51.8359007,92.5675595 C52.2454633,92.1739955 51.9550898,91.4804589 51.3863418,91.4956575 Z M53.8205193,91.4956575 C52.9893953,91.5396535 53.0517896,92.7859396 53.8829136,92.7459432 L57.6321708,92.7459432 C58.4792933,92.7579421 58.4792933,91.4836586 57.6321708,91.4956575 L53.8829136,91.4956575 C53.8613155,91.4924578 53.8421173,91.4924578 53.8205193,91.4956575 Z M53.8357179,93.995429 C52.9989944,94.0362253 53.0645884,95.2889107 53.8981122,95.2457147 L61.3478311,95.2457147 C62.1949536,95.2577136 62.1949536,93.9834301 61.3478311,93.995429 L53.8981122,93.995429 C53.8765141,93.9922293 53.8549161,93.9922293 53.8357179,93.995429 Z M71.9972574,95.2361156 L74.4962289,95.2361156 L74.4962289,107.734973 L74.3810394,107.734973 L74.3338438,107.734973 L72.1564428,107.734973 L72.1252457,107.734973 L71.9972574,107.734973 L71.9972574,95.2361156 Z M51.3863418,97.7454861 C51.2239567,97.7454861 51.0703707,97.8142798 50.9551812,97.932669 L48.8865704,99.9884811 L48.070645,99.179755 C47.4802989,98.567011 46.5739818,99.4797276 47.1899255,100.066874 L48.4458107,101.31396 C48.6897884,101.553938 49.0833524,101.553938 49.3273301,101.31396 L51.8359007,98.8173881 C52.2454633,98.4230242 51.9550898,97.7294876 51.3863418,97.7454861 Z M53.8205193,97.7454861 C52.9861955,97.7854825 53.0485898,99.0389679 53.8829136,98.9949719 L57.6321708,98.9949719 C58.4792933,99.0077707 58.4792933,97.7326873 57.6321708,97.7454861 L53.8829136,97.7454861 C53.8613155,97.7422864 53.8421173,97.7422864 53.8205193,97.7454861 Z M53.8357179,100.245258 C52.9989944,100.285254 53.0645884,101.538739 53.8981122,101.494743 L61.3478311,101.494743 C62.1949536,101.507542 62.1949536,100.232459 61.3478311,100.245258 L53.8981122,100.245258 C53.8765141,100.242058 53.8549161,100.242058 53.8357179,100.245258 Z M51.3863418,103.994515 C51.2239567,103.994515 51.0703707,104.063308 50.9551812,104.182498 L48.8865704,106.23831 L48.070645,105.428784 C47.4802989,104.81684 46.5739818,105.728756 47.1899255,106.316702 L48.4458107,107.562989 C48.6897884,107.803767 49.0833524,107.803767 49.3273301,107.562989 L51.8359007,105.066417 C52.2454633,104.672853 51.9550898,103.979316 51.3863418,103.994515 Z M53.8205193,103.994515 C52.9893953,104.038511 53.0517896,105.284797 53.8829136,105.2448 L57.6321708,105.2448 C58.4792933,105.256799 58.4792933,103.982516 57.6321708,103.994515 L53.8829136,103.994515 C53.8613155,103.991315 53.8421173,103.991315 53.8205193,103.994515 Z M53.8357179,106.494286 C52.9989944,106.535083 53.0645884,107.787768 53.8981122,107.744572 L61.3478311,107.744572 C62.1949536,107.756571 62.1949536,106.482287 61.3478311,106.494286 L53.8981122,106.494286 C53.8765141,106.491087 53.8549161,106.491087 53.8357179,106.494286 Z M72.7811857,108.984459 L73.7091009,108.984459 L73.7091009,110.234744 L72.7811857,110.234744 L72.7811857,108.984459 Z" id="Page-1"></path>
        </g>
    </g>
</svg>