<?xml version="1.0" encoding="UTF-8"?>
<svg width="37px" height="36px" viewBox="0 0 37 36" version="1.1" xmlns="http://www.w3.org/2000/svg" xmlns:xlink="http://www.w3.org/1999/xlink">
    <!-- Generator: Sketch 41.2 (35397) - http://www.bohemiancoding.com/sketch -->
    <title>Page 1</title>
    <desc>Created with Sketch.</desc>
    <defs></defs>
    <g id="InspectorPage" stroke="none" stroke-width="1" fill="none" fill-rule="evenodd">
        <g id="3---swipe-problem" transform="translate(-456.000000, -119.000000)" fill="#777777">
            <path d="M488.362784,131.456599 L481.881537,131.456599 C483.089406,122.500693 477.933868,119.749846 477.707024,119.632005 C477.620853,119.589288 477.52879,119.560564 477.433781,119.54878 C476.737046,119.462609 475.0313,119.332984 474.266071,120.009096 C473.986935,120.256561 473.831533,120.593144 473.831533,120.955505 L473.831533,126.142713 C473.831533,126.709822 473.664346,127.256309 473.345439,127.725463 L468.063222,132.99295 L468.063222,131.370428 C468.063222,131.312981 468.05733,131.257743 468.046283,131.206187 C468.037444,131.16568 468.02566,131.128854 468.011667,131.091293 C468.005775,131.079509 468.005775,131.065515 467.999883,131.053731 C467.982943,131.013223 467.959375,130.973452 467.936543,130.93589 C467.930651,130.927052 467.927705,130.918214 467.92255,130.913058 C467.89088,130.866658 467.85921,130.826151 467.818702,130.786379 L467.818702,130.786379 C467.81281,130.780487 467.801763,130.774595 467.795871,130.765757 C467.764201,130.737033 467.732531,130.70831 467.694969,130.682532 C467.680239,130.673694 467.6633,130.665592 467.649306,130.656754 C467.617636,130.639815 467.585967,130.619193 467.554297,130.605199 C467.533675,130.596361 467.513789,130.593415 467.493903,130.584577 C467.462234,130.573529 467.430564,130.561745 467.398894,130.555853 C467.346602,130.544806 467.292101,130.538914 467.234654,130.538914 L467.231708,130.538914 L456.825623,130.576475 C456.368253,130.578685 456,130.946938 456,131.405044 L456,153.649717 C456,154.107087 456.371199,154.478286 456.828569,154.478286 L467.720747,154.478286 C467.954219,154.478286 468.175171,154.38033 468.330574,154.210198 C468.485976,154.037855 468.566992,153.810275 468.54637,153.580485 L468.494814,152.987599 L469.015524,153.376473 C469.041301,153.396359 469.067079,153.413299 469.095803,153.430975 C470.281576,154.115925 471.636746,154.478286 473.00591,154.478286 L482.505357,154.478286 C486.053103,154.478286 489.133906,152.075805 490.000036,148.634852 L492.169044,140.006691 C492.290568,139.863072 492.367901,139.678946 492.367901,139.474934 C492.367901,139.41454 492.362009,139.356356 492.348015,139.298909 L492.865778,137.233748 C493.216355,135.835124 492.911442,134.379789 492.025426,133.243361 C491.142356,132.106934 489.807072,131.456599 488.362784,131.456599 Z M457.660083,132.230666 L466.409031,132.198997 L466.409031,152.821148 L457.660083,152.821148 L457.660083,132.230666 Z M488.394454,148.229037 C487.716133,150.933485 485.293766,152.821148 482.505357,152.821148 L473.011802,152.821148 C471.946815,152.821148 470.897295,152.544959 469.970771,152.018357 L468.066168,150.593956 L468.066168,135.332091 L474.568038,128.844215 C474.602654,128.812545 474.631377,128.774983 474.657155,128.737421 C475.200696,127.975138 475.485724,127.078075 475.485724,126.142713 L475.485724,121.211809 C475.802421,121.133739 476.463803,121.1168 477.062582,121.174247 C477.767418,121.619833 481.478668,124.358897 480.094775,132.141549 C480.051321,132.383123 480.117606,132.630589 480.275955,132.817661 C480.434304,133.003997 480.667039,133.113736 480.911559,133.113736 L488.362784,133.113736 C489.292254,133.113736 490.149547,133.533545 490.719602,134.264158 C491.28892,134.995508 491.487777,135.930133 491.260197,136.830879 L490.802827,138.646365 L487.808196,138.646365 C487.350826,138.646365 486.979627,139.017564 486.979627,139.474934 C486.979627,139.932304 487.350826,140.303502 487.808196,140.303502 L490.385965,140.303502 L489.002071,145.803725 L486.432404,145.803725 C485.975034,145.803725 485.603835,146.174923 485.603835,146.632293 C485.603835,147.089663 485.975034,147.460862 486.432404,147.460862 L488.584473,147.460862 L488.394454,148.229037 Z" id="Page-1"></path>
        </g>
    </g>
</svg>