<?xml version="1.0" encoding="utf-8"?>
<!-- Generator: Adobe Illustrator 16.0.4, SVG Export Plug-In . SVG Version: 6.00 Build 0)  -->
<!DOCTYPE svg PUBLIC "-//W3C//DTD SVG 1.1//EN" "http://www.w3.org/Graphics/SVG/1.1/DTD/svg11.dtd">
<svg version="1.1" id="Layer_1" xmlns="http://www.w3.org/2000/svg" xmlns:xlink="http://www.w3.org/1999/xlink" x="0px" y="0px"
	 width="85px" height="76px" viewBox="0 0 85 76" enable-background="new 0 0 85 76" xml:space="preserve">
<title>Page 1</title>
<desc>Created with Sketch.</desc>
<g id="Inspection">
	<g id="NewInspectionRoomSelection" transform="translate(-1129.000000, -46.000000)">
		<g id="Page-1" transform="translate(1129.000000, 46.000000)">
			<path id="Fill-1" fill="#35306C" d="M64.641,21.762c0.48,0,0.879-0.398,0.879-0.879v-1.762c0-0.48-0.398-0.879-0.879-0.879
				s-0.879,0.398-0.879,0.879v1.762C63.762,21.36,64.16,21.762,64.641,21.762z"/>
			<path id="Fill-2" fill="#35306C" d="M63.762,26.238c0,0.48,0.398,0.879,0.879,0.879s0.879-0.398,0.879-0.879v-1.762
				c0-0.48-0.398-0.879-0.879-0.879s-0.879,0.398-0.879,0.879V26.238z"/>
			<path id="Fill-3" fill="#35306C" d="M63.762,31.68c0,0.48,0.398,0.879,0.879,0.879s0.879-0.398,0.879-0.879v-1.762
				c0-0.48-0.398-0.879-0.879-0.879s-0.879,0.398-0.879,0.879V31.68z"/>
			<path id="Fill-4" fill="#35306C" d="M63.762,37.121c0,0.48,0.398,0.879,0.879,0.879s0.879-0.398,0.879-0.879v-1.762
				c0-0.48-0.398-0.879-0.879-0.879s-0.879,0.398-0.879,0.879V37.121z"/>
			<path id="Fill-5" fill="#35306C" d="M68.16,24.48c0.48,0,0.879-0.398,0.879-0.879v-1.762c0-0.48-0.398-0.879-0.879-0.879
				s-0.879,0.398-0.879,0.879v1.762C67.281,24.078,67.68,24.48,68.16,24.48z"/>
			<path id="Fill-6" fill="#35306C" d="M67.281,28.961c0,0.48,0.398,0.879,0.879,0.879s0.879-0.398,0.879-0.879v-1.762
				c0-0.48-0.398-0.879-0.879-0.879s-0.879,0.398-0.879,0.879V28.961z"/>
			<path id="Fill-7" fill="#35306C" d="M67.281,34.398c0,0.48,0.398,0.879,0.879,0.879s0.879-0.398,0.879-0.879v-1.762
				c0-0.48-0.398-0.879-0.879-0.879s-0.879,0.398-0.879,0.879V34.398z"/>
			<path id="Fill-8" fill="#35306C" d="M61.121,24.48c0.48,0,0.879-0.398,0.879-0.879v-1.762c0-0.48-0.398-0.879-0.879-0.879
				s-0.879,0.398-0.879,0.879v1.762C60.238,24.078,60.641,24.48,61.121,24.48z"/>
			<path id="Fill-9" fill="#35306C" d="M60.238,28.961c0,0.48,0.398,0.879,0.879,0.879s0.879-0.398,0.879-0.879L62,27.199
				c0-0.48-0.398-0.879-0.879-0.879s-0.879,0.398-0.879,0.879L60.238,28.961z"/>
			<path id="Fill-10" fill="#35306C" d="M60.238,34.398c0,0.48,0.398,0.879,0.879,0.879s0.879-0.398,0.879-0.879v-1.762
				c0-0.48-0.398-0.879-0.879-0.879s-0.879,0.398-0.879,0.879V34.398z"/>
			<path id="Fill-11" fill="#35306C" d="M79.359,40.16h-0.398V8.078c0-4.398-3.602-7.922-7.922-7.922
				c-3.922,0-7.121,2.801-7.84,6.48c-3.68,0.719-6.48,3.922-6.48,7.84c0,0.879,0.719,1.602,1.602,1.602h12.719
				c0.879,0,1.602-0.719,1.602-1.602c0-3.762-2.641-6.879-6.16-7.762c0.559-1.922,2.398-3.359,4.559-3.359
				c2.641,0,4.719,2.16,4.719,4.719v32.078L5.602,40.16c-2.719,0-4.879,2.16-4.879,4.879s2.16,4.879,4.879,4.879h3.039l10,17.281
				l-3.359,5.762c-0.48,0.801-0.16,1.762,0.559,2.16c0.801,0.48,1.762,0.16,2.16-0.559l3.36-5.762h42.078l3.359,5.762
				c0.32,0.48,0.801,0.801,1.359,0.801c0.238,0,0.559-0.078,0.801-0.238c0.801-0.48,1.039-1.441,0.559-2.16l-3.277-5.766l10-17.359
				h3.039c2.719,0,4.879-2.16,4.879-4.879C84.238,42.32,82.078,40.16,79.359,40.16L79.359,40.16z M69.121,12.801H60.16
				c0.641-1.839,2.398-3.121,4.48-3.121C66.719,9.68,68.48,10.961,69.121,12.801L69.121,12.801z M63.52,65.602H21.441l-9.121-15.68
				h60.32L63.52,65.602z M79.359,46.719H5.52c-0.961,0-1.68-0.719-1.68-1.68s0.719-1.68,1.68-1.68h73.762
				c0.961,0,1.68,0.719,1.68,1.68S80.238,46.719,79.359,46.719L79.359,46.719z"/>
		</g>
	</g>
</g>
</svg>
