<?xml version="1.0" encoding="UTF-8"?>
<svg width="81px" height="54px" viewBox="0 0 81 54" version="1.1" xmlns="http://www.w3.org/2000/svg" xmlns:xlink="http://www.w3.org/1999/xlink">
    <!-- Generator: Sketch 43.2 (39069) - http://www.bohemiancoding.com/sketch -->
    <title>Page 1</title>
    <desc>Created with Sketch.</desc>
    <defs></defs>
    <g id="Inspection" stroke="none" stroke-width="1" fill="none" fill-rule="evenodd">
        <g id="NewInspectionRoomSelection" transform="translate(-897.000000, -70.000000)" fill="#AAAAAA">
            <path d="M897,111.20701 C897.003906,114.24221 899.4609,116.69921 902.5,116.70701 L904.5,116.70701 L904.5,119.89841 L904.5,119.8945 C904.5,122.164 906.3359,124 908.6016,124 C910.8711,124 912.7071,122.1641 912.7071,119.8945 L912.7071,116.707 L961.9571,116.707 L961.9571,119.8984 L961.9571,119.8945 C961.9571,122.164 963.7969,124 966.0626,124 C968.3321,124 970.1681,122.1641 970.1681,119.8945 L970.1681,116.707 L972.1681,116.707 C975.2033,116.69918 977.6642,114.2422 977.6681,111.207 L977.6681,99.863 C977.66419,96.8278 975.2033,94.3708 972.1681,94.363 L970.1681,94.363 L970.1681,81.84299 C970.16419,75.49529 965.0158,70.351 958.6681,70.34299 L916.0001,70.34299 C909.6485,70.35081 904.5041,75.49529 904.5001,81.84299 L904.5001,94.363 L902.5001,94.363 C899.461,94.37081 897.004001,96.8278 897.000101,99.863 L897,111.20701 Z M909.711,119.89841 L909.70709,119.8945 C909.70709,120.50388 909.2149,121 908.60159,121 C907.99221,121 907.49999,120.50391 907.49999,119.8945 L907.49999,116.707 L909.71089,116.707 L909.711,119.89841 Z M967.172,119.89841 L967.16809,119.8945 C967.16809,120.50388 966.672,121 966.06259,121 C965.45318,121 964.95709,120.50391 964.95709,119.8945 L964.95709,116.707 L967.16799,116.707 L967.172,119.89841 Z M907.5,81.89841 L907.5,81.8945 C907.5039,77.2031 911.3047,73.4023 916,73.3945 L958.656,73.3945 C963.3513,73.40231 967.1521,77.2031 967.156,81.8945 L967.156,94.3635 L963.9998,94.3635 L963.9998,92.0041 C963.99198,88.4182 961.0857,85.5119 957.4998,85.5041 L945.2698,85.5041 C941.68,85.51191 938.7737,88.4182 938.7698,92.0041 L938.7698,94.3635 L935.7698,94.3635 L935.7698,92.0041 C935.76198,88.4182 932.8557,85.5119 929.2698,85.5041 L917.0078,85.5041 C913.4219,85.51191 910.5117,88.4182 910.5078,92.0041 L910.5078,94.3635 L907.5078,94.3635 L907.5,81.89841 Z M961,92.00341 L961,94.36281 L941.77,94.36281 L941.77,92.00341 C941.77,90.06981 943.3364,88.50341 945.27,88.50341 L957.5,88.50341 C959.4297,88.50341 961,90.06981 961,92.00341 Z M932.75,92.00341 L932.75,94.36281 L913.508,94.36281 L913.508,92.00341 C913.508,90.06981 915.0744,88.50341 917.008,88.50341 L929.25,88.50341 C931.1797,88.50341 932.75,90.06981 932.75,92.00341 Z M900,99.86281 C900,98.48391 901.1172,97.36281 902.5,97.36281 L972.156,97.36281 C972.82006,97.36281 973.4568,97.62843 973.9255,98.09719 C974.3942,98.56595 974.65597,99.20269 974.65597,99.86279 L974.65597,111.20679 C974.65597,111.86695 974.39425,112.50369 973.9255,112.97239 C973.45675,113.44109 972.82,113.70677 972.156,113.70677 L902.5,113.70677 C901.1172,113.70677 900,112.58567 900,111.20677 L900,99.86281 Z" id="Page-1"></path>
        </g>
    </g>
</svg>