<?xml version="1.0" encoding="utf-8"?>
<!-- Generator: Adobe Illustrator 16.0.4, SVG Export Plug-In . SVG Version: 6.00 Build 0)  -->
<!DOCTYPE svg PUBLIC "-//W3C//DTD SVG 1.1//EN" "http://www.w3.org/Graphics/SVG/1.1/DTD/svg11.dtd">
<svg version="1.1" id="Layer_1" xmlns="http://www.w3.org/2000/svg" xmlns:xlink="http://www.w3.org/1999/xlink" x="0px" y="0px"
	 width="81px" height="54px" viewBox="0 0 81 54" enable-background="new 0 0 81 54" xml:space="preserve">
<title>Bedroom</title>
<desc>Created with Sketch.</desc>
<g id="Inspection">
	<g id="NewInspectionRoomSelection" transform="translate(-897.000000, -70.000000)">
		<g id="Bedroom" transform="translate(897.000000, 24.000000)">
			<path id="Page-1" fill="#35306C" d="M0,87.207c0.004,3.035,2.461,5.492,5.5,5.5h2v3.191v-0.004c0,2.27,1.836,4.105,4.102,4.105
				c2.27,0,4.105-1.836,4.105-4.105v-3.188h49.25v3.191v-0.004c0,2.27,1.84,4.105,4.105,4.105c2.27,0,4.105-1.836,4.105-4.105
				v-3.188h2c3.035-0.008,5.496-2.465,5.5-5.5V75.863c-0.004-3.036-2.465-5.493-5.5-5.5h-2v-12.52
				c-0.004-6.348-5.152-11.492-11.5-11.5H19c-6.352,0.008-11.496,5.152-11.5,11.5v12.52h-2c-3.039,0.008-5.496,2.465-5.5,5.5V87.207
				z M12.711,95.898l-0.004-0.004c0,0.609-0.492,1.105-1.105,1.105c-0.609,0-1.102-0.496-1.102-1.105v-3.188h2.211V95.898z
				 M70.172,95.898l-0.004-0.004c0,0.609-0.496,1.105-1.105,1.105s-1.105-0.496-1.105-1.105v-3.188h2.211L70.172,95.898z
				 M10.5,57.898v-0.004c0.004-4.691,3.805-8.492,8.5-8.5h42.656c4.695,0.008,8.496,3.809,8.5,8.5v12.469H67v-2.359
				c-0.008-3.586-2.914-6.492-6.5-6.5H48.27c-3.59,0.008-6.496,2.914-6.5,6.5v2.359h-3v-2.359c-0.008-3.586-2.915-6.492-6.5-6.5
				H20.008c-3.586,0.008-6.496,2.914-6.5,6.5v2.359h-3L10.5,57.898z M64,68.003v2.359H44.77v-2.359c0-1.934,1.566-3.5,3.5-3.5H60.5
				C62.43,64.503,64,66.07,64,68.003z M35.75,68.003v2.359H16.508v-2.359c0-1.934,1.566-3.5,3.5-3.5H32.25
				C34.18,64.503,35.75,66.07,35.75,68.003z M3,75.863c0-1.379,1.117-2.5,2.5-2.5h69.656c0.664,0,1.301,0.266,1.77,0.735
				s0.73,1.105,0.73,1.766v11.344c0,0.66-0.262,1.297-0.73,1.766s-1.105,0.734-1.77,0.734H5.5c-1.383,0-2.5-1.121-2.5-2.5V75.863z"
				/>
		</g>
	</g>
</g>
</svg>
