<?xml version="1.0" encoding="utf-8"?>
<!-- Generator: Adobe Illustrator 16.0.4, SVG Export Plug-In . SVG Version: 6.00 Build 0)  -->
<!DOCTYPE svg PUBLIC "-//W3C//DTD SVG 1.1//EN" "http://www.w3.org/Graphics/SVG/1.1/DTD/svg11.dtd">
<svg version="1.1" id="Layer_1" xmlns="http://www.w3.org/2000/svg" xmlns:xlink="http://www.w3.org/1999/xlink" x="0px" y="0px"
	 width="72px" height="65px" viewBox="0 0 72 65" enable-background="new 0 0 72 65" xml:space="preserve">
<title>Kitchen</title>
<desc>Created with Sketch.</desc>
<g id="Inspection">
	<g id="Kitchen" transform="translate(738.000000, 22.000000)">
		<path id="Page-1" fill="#35306C" d="M-677.139-19.203c0.285,0,0.559,0.102,0.762,0.309c0.438,0.438,0.402,1.184-0.078,1.668
			l-15.742,15.738h-0.004c-0.195,0.195-0.211,0.5-0.031,0.676c0.082,0.086,0.191,0.125,0.305,0.125c0.129,0,0.266-0.055,0.367-0.156
			h0.004l15.742-15.742c0.258-0.258,0.59-0.387,0.906-0.387c0.285,0,0.555,0.102,0.762,0.309c0.438,0.438,0.402,1.184-0.078,1.668
			L-690.04,0.828h0.004c-0.141,0.168-0.148,0.406-0.004,0.555c0.07,0.07,0.164,0.105,0.262,0.105c0.102,0,0.207-0.039,0.289-0.109
			l0.004,0.004l15.823-15.824c0.258-0.258,0.59-0.387,0.906-0.387c0.281,0,0.555,0.102,0.758,0.305
			c0.438,0.441,0.402,1.188-0.078,1.668l-15.742,15.746h-0.004c-0.195,0.195-0.211,0.5-0.031,0.676
			c0.086,0.082,0.195,0.125,0.309,0.125c0.129,0,0.262-0.055,0.367-0.156l15.746-15.746c0.258-0.254,0.586-0.387,0.906-0.387
			c0.281,0,0.555,0.102,0.762,0.305c0.438,0.438,0.402,1.188-0.078,1.668l-19.246,19.25c-0.527,0.527-1.238,1.012-2.03,1.012
			c-0.547,0-1.129-0.227-1.724-0.82c-0.371-0.371-0.742-0.5-1.07-0.5c-0.742,0-1.301,0.648-1.301,0.648l-27.761,29.953
			c-0.09,0.113-0.184,0.223-0.289,0.328c-0.75,0.746-1.715,1.129-2.652,1.129c-0.824,0-1.621-0.297-2.223-0.898
			c-1.281-1.281-1.176-3.461,0.234-4.871c0.105-0.105,0.215-0.203,0.328-0.289l29.953-27.766c0,0,1.352-1.168,0.148-2.371
			c-1.465-1.461-0.695-2.863,0.191-3.754l19.246-19.246C-677.787-19.074-677.455-19.203-677.139-19.203L-677.139-19.203z
			 M-677.139-21.707c-0.988,0-1.961,0.41-2.672,1.121L-699.053-1.34c-0.91,0.906-1.469,1.91-1.668,2.969
			c-0.234,1.254,0.07,2.5,0.855,3.59l-29.344,27.203c-0.164,0.133-0.32,0.273-0.465,0.422c-2.379,2.379-2.484,6.148-0.23,8.402
			c1.051,1.051,2.469,1.629,3.992,1.629c1.625,0,3.234-0.676,4.418-1.863c0.145-0.145,0.281-0.297,0.41-0.453l27.203-29.348
			c1.043,0.75,2.047,0.93,2.762,0.93c1.344,0,2.656-0.605,3.801-1.743l19.246-19.246c1.453-1.453,1.492-3.785,0.082-5.199
			c-0.398-0.395-0.867-0.684-1.383-0.859c-0.168-0.504-0.453-0.977-0.852-1.375c-0.375-0.375-0.824-0.66-1.316-0.832
			c-0.172-0.48-0.445-0.93-0.828-1.312c-0.395-0.395-0.863-0.684-1.383-0.855c-0.172-0.516-0.465-0.988-0.852-1.379
			C-675.271-21.336-676.174-21.708-677.139-21.707L-677.139-21.707z M-717.666,12.105c1.137,0,2.254-0.383,3.219-1.094l2.684,2.965
			l1.832-1.699l-3.184-3.516c0,0-0.555-0.648-1.297-0.648c-0.332,0-0.699,0.129-1.074,0.5c-0.582,0.582-1.348,0.992-2.184,0.992
			c-0.902,0-1.887-0.477-2.812-1.73c-1.781-2.414-14.254-20.734-14.254-20.734c-0.965-0.965-1.035-2.46-0.16-3.335
			c0.41-0.41,0.961-0.613,1.523-0.613c0.637,0,1.301,0.258,1.812,0.773l25.094,25.094l1.836-1.703l-25.152-25.16
			c-0.957-0.953-2.262-1.504-3.582-1.504c-1.254,0-2.422,0.477-3.293,1.348c-1.789,1.79-1.781,4.731-0.031,6.676
			c1.32,1.938,12.477,18.316,14.195,20.648C-720.818,11.633-718.943,12.105-717.666,12.105L-717.666,12.105z M-696.018,15.965
			l-1.699,1.836l16.934,16.934c1.41,1.41,1.512,3.594,0.234,4.875c-0.602,0.602-1.398,0.895-2.227,0.895
			c-0.934,0-1.898-0.379-2.648-1.129c-0.141-0.141-0.266-0.289-0.379-0.441l-15.565-17.195l-1.703,1.84l15.349,16.953
			c0.176,0.23,0.355,0.43,0.535,0.613c1.18,1.18,2.789,1.855,4.414,1.855c1.523,0,2.941-0.578,3.992-1.629
			c1.105-1.105,1.699-2.664,1.621-4.273c-0.074-1.543-0.73-3.012-1.855-4.137L-696.018,15.965z"/>
	</g>
</g>
</svg>
