<?xml version="1.0" encoding="UTF-8"?>
<svg width="72px" height="65px" viewBox="0 0 72 65" version="1.1" xmlns="http://www.w3.org/2000/svg" xmlns:xlink="http://www.w3.org/1999/xlink">
    <!-- Generator: Sketch 43.2 (39069) - http://www.bohemiancoding.com/sketch -->
    <title>Page 1</title>
    <desc>Created with Sketch.</desc>
    <defs></defs>
    <g id="Inspection" stroke="none" stroke-width="1" fill="none" fill-rule="evenodd">
        <g id="NewInspectionRoomSelection" transform="translate(-800.000000, -47.000000)" fill="#AAAAAA">
            <path d="M860.861653,49.79721 C861.146813,49.79721 861.420243,49.89877 861.623373,50.1058 C862.060873,50.5433 862.025713,51.2894 861.545243,51.7738 L845.803243,67.5118 L845.799343,67.5118 C845.604033,67.70711 845.588403,68.0118 845.768093,68.18758 C845.850123,68.27352 845.959503,68.31258 846.072783,68.31258 C846.201693,68.31258 846.338413,68.25789 846.439973,68.15633 L846.443873,68.15633 L862.185873,52.41433 C862.443683,52.15652 862.775713,52.02761 863.092123,52.02761 C863.377283,52.02761 863.646813,52.12917 863.853843,52.3362 C864.291343,52.7737 864.256183,53.5198 863.775723,54.0042 L847.959723,69.8282 L847.963633,69.8282 C847.823003,69.99617 847.815193,70.23445 847.959723,70.38289 C848.030033,70.4532 848.123783,70.48836 848.221443,70.48836 C848.323003,70.48836 848.428473,70.4493 848.510503,70.37899 L848.514413,70.3829 L864.338413,54.5589 C864.596223,54.30109 864.928253,54.17218 865.244663,54.17218 C865.525913,54.17218 865.799353,54.27374 866.002473,54.47687 C866.439973,54.91828 866.404813,55.66437 865.924343,56.14487 L850.182343,71.89087 L850.178433,71.89087 C849.983123,72.08618 849.967493,72.39087 850.147183,72.56665 C850.233123,72.64868 850.342493,72.69165 850.455773,72.69165 C850.584683,72.69165 850.717493,72.63696 850.822963,72.5354 L866.568963,56.7894 C866.826773,56.53549 867.154903,56.40268 867.475213,56.40268 C867.756463,56.40268 868.029903,56.50424 868.236933,56.70737 C868.674433,57.14487 868.639273,57.89487 868.158813,58.37537 L848.912813,77.62537 C848.385473,78.15271 847.674513,78.63707 846.881613,78.63707 C846.334733,78.63707 845.752713,78.41051 845.158913,77.81676 C844.787823,77.44567 844.416723,77.31676 844.088613,77.31676 C843.346423,77.31676 842.787813,77.9652 842.787813,77.9652 L815.025813,107.91819 C814.935973,108.03147 814.842223,108.14085 814.736753,108.24631 C813.986753,108.9924 813.021953,109.37521 812.084453,109.37521 C811.260233,109.37521 810.463353,109.07833 809.861753,108.47677 C808.580553,107.19557 808.685953,105.01587 810.096133,103.60568 C810.201603,103.50021 810.310973,103.40256 810.424253,103.31662 L840.377253,75.55061 C840.377253,75.55061 841.728853,74.38261 840.525693,73.17951 C839.060893,71.71861 839.830383,70.31621 840.717103,69.42561 L859.963103,50.17961 C860.213103,49.9257 860.545133,49.7968 860.861543,49.7968 L860.861653,49.79721 Z M860.861543,47.2929 C859.873263,47.2929 858.900643,47.70306 858.189643,48.414 L838.947643,67.66 C838.037483,68.56625 837.478843,69.5702 837.279643,70.6288 C837.045263,71.8827 837.349953,73.1288 838.135113,74.2186 L808.791113,101.4216 C808.627053,101.55441 808.470803,101.69504 808.326273,101.84348 C805.947373,104.22238 805.841873,107.99188 808.095803,110.24578 C809.146603,111.29658 810.564603,111.87468 812.088003,111.87468 C813.713003,111.87468 815.322403,111.1989 816.506003,110.01138 C816.650533,109.86685 816.787253,109.7145 816.916163,109.55826 L844.119163,80.21026 C845.162163,80.96026 846.166063,81.13995 846.880863,81.13995 C848.224663,81.13995 849.537063,80.53448 850.681663,79.39775 L869.927663,60.15175 C871.380763,58.69865 871.419863,56.36655 870.009693,54.95255 C869.611253,54.55802 869.142503,54.26896 868.626893,54.09317 C868.458923,53.58926 868.173773,53.11661 867.775333,52.71817 C867.400333,52.34317 866.951113,52.05801 866.458933,51.88614 C866.287053,51.40567 866.013623,50.95645 865.630813,50.57364 C865.236283,50.17911 864.767533,49.89005 864.248013,49.71817 C864.076133,49.20255 863.783173,48.72989 863.396453,48.33927 C862.728483,47.66349 861.826153,47.29237 860.861253,47.29237 L860.861543,47.2929 Z M820.334543,81.1049 C821.471243,81.1049 822.588443,80.72209 823.553343,80.0111 L826.236943,82.9759 L828.068943,81.2767 L824.885343,77.7611 C824.885343,77.7611 824.330653,77.11266 823.588443,77.11266 C823.256413,77.11266 822.889223,77.24157 822.514243,77.61266 C821.932213,78.19469 821.166543,78.60485 820.330643,78.60485 C819.428303,78.60485 818.443943,78.12829 817.518143,76.87435 C815.736943,74.46025 803.264143,56.14035 803.264143,56.14035 C802.299303,55.17551 802.228943,53.67945 803.103983,52.80445 C803.514143,52.39429 804.064923,52.19117 804.627383,52.19117 C805.264103,52.19117 805.928183,52.44898 806.439883,52.96461 L831.533883,78.05861 L833.369783,76.35551 L808.217783,51.19551 C807.260753,50.24239 805.956083,49.69161 804.635783,49.69161 C803.381883,49.69161 802.213883,50.16817 801.342783,51.03931 C799.553683,52.82841 799.561583,55.76982 801.311533,57.71511 C802.631833,59.65261 813.788533,76.03111 815.506533,78.36312 C817.182333,80.63262 819.057333,81.10532 820.334633,81.10532 L820.334543,81.1049 Z M841.982543,84.9643 L840.283343,86.8002 L857.217343,103.7342 C858.627543,105.1444 858.729043,107.328 857.451723,108.6092 C856.850163,109.21076 856.053323,109.50373 855.225123,109.50373 C854.291533,109.50373 853.326723,109.12482 852.576723,108.37483 C852.436103,108.23421 852.311103,108.08577 852.197813,107.93342 L836.631813,90.73842 L834.928713,92.57822 L850.276713,109.53122 C850.452493,109.76169 850.632183,109.96091 850.811873,110.1445 C851.991573,111.3242 853.600973,112 855.225973,112 C856.749373,112 858.167373,111.42188 859.218173,110.3711 C860.323673,109.2656 860.917373,107.707 860.839273,106.0977 C860.765053,104.5547 860.108803,103.086 858.983773,101.961 L841.982543,84.9643 Z" id="Page-1"></path>
        </g>
    </g>
</svg>