<?xml version="1.0" encoding="UTF-8"?>
<svg width="72px" height="65px" viewBox="0 0 72 65" version="1.1" xmlns="http://www.w3.org/2000/svg" xmlns:xlink="http://www.w3.org/1999/xlink">
    <!-- Generator: Sketch 44 (41411) - http://www.bohemiancoding.com/sketch -->
    <title>Kitchen</title>
    <desc>Created with Sketch.</desc>
    <defs></defs>
    <g id="Inspection" stroke="none" stroke-width="1" fill="none" fill-rule="evenodd">
        <g id="NewInspectionRoomSelection" transform="translate(-738.000000, -57.000000)">
            <g id="Kitchen" transform="translate(738.000000, 22.000000)">
                <polygon id="Path-8" fill="#D5D5E6" points="8.45996094 92.0644531 40.359375 62.4023438 38.4277344 58.7001953 61.2207031 35.9726562 70.4130859 45.3525391 48.3730469 67.8613281 44.6376953 66.5136719 15.6220703 97.5849609 10.6699219 98.4140625 8.45996094 95.0947266"></polygon>
                <path d="M60.8616532,37.79721 C61.1468132,37.79721 61.4202432,37.89877 61.6233732,38.1058 C62.0608732,38.5433 62.0257132,39.2894 61.5452432,39.7738 L45.8032432,55.5118 L45.7993432,55.5118 C45.6040332,55.70711 45.5884032,56.0118 45.7680932,56.18758 C45.8501232,56.27352 45.9595032,56.31258 46.0727832,56.31258 C46.2016932,56.31258 46.3384132,56.25789 46.4399732,56.15633 L46.4438732,56.15633 L62.1858732,40.41433 C62.4436832,40.15652 62.7757132,40.02761 63.0921232,40.02761 C63.3772832,40.02761 63.6468132,40.12917 63.8538432,40.3362 C64.2913432,40.7737 64.2561832,41.5198 63.7757232,42.0042 L47.9597232,57.8282 L47.9636332,57.8282 C47.8230032,57.99617 47.8151932,58.23445 47.9597232,58.38289 C48.0300332,58.4532 48.1237832,58.48836 48.2214432,58.48836 C48.3230032,58.48836 48.4284732,58.4493 48.5105032,58.37899 L48.5144132,58.3829 L64.3384132,42.5589 C64.5962232,42.30109 64.9282532,42.17218 65.2446632,42.17218 C65.5259132,42.17218 65.7993532,42.27374 66.0024732,42.47687 C66.4399732,42.91828 66.4048132,43.66437 65.9243432,44.14487 L50.1823432,59.89087 L50.1784332,59.89087 C49.9831232,60.08618 49.9674932,60.39087 50.1471832,60.56665 C50.2331232,60.64868 50.3424932,60.69165 50.4557732,60.69165 C50.5846832,60.69165 50.7174932,60.63696 50.8229632,60.5354 L66.5689632,44.7894 C66.8267732,44.53549 67.1549032,44.40268 67.4752132,44.40268 C67.7564632,44.40268 68.0299032,44.50424 68.2369332,44.70737 C68.6744332,45.14487 68.6392732,45.89487 68.1588132,46.37537 L48.9128132,65.62537 C48.3854732,66.15271 47.6745132,66.63707 46.8816132,66.63707 C46.3347332,66.63707 45.7527132,66.41051 45.1589132,65.81676 C44.7878232,65.44567 44.4167232,65.31676 44.0886132,65.31676 C43.3464232,65.31676 42.7878132,65.9652 42.7878132,65.9652 L15.0258132,95.91819 C14.9359732,96.03147 14.8422232,96.14085 14.7367532,96.24631 C13.9867532,96.9924 13.0219532,97.37521 12.0844532,97.37521 C11.2602332,97.37521 10.4633532,97.07833 9.86175319,96.47677 C8.58055319,95.19557 8.68595319,93.01587 10.0961332,91.60568 C10.2016032,91.50021 10.3109732,91.40256 10.4242532,91.31662 L40.3772532,63.55061 C40.3772532,63.55061 41.7288532,62.38261 40.5256932,61.17951 C39.0608932,59.71861 39.8303832,58.31621 40.7171032,57.42561 L59.9631032,38.17961 C60.2131032,37.9257 60.5451332,37.7968 60.8615432,37.7968 L60.8616532,37.79721 Z M60.8615432,35.2929 C59.8732632,35.2929 58.9006432,35.70306 58.1896432,36.414 L38.9476432,55.66 C38.0374832,56.56625 37.4788432,57.5702 37.2796432,58.6288 C37.0452632,59.8827 37.3499532,61.1288 38.1351132,62.2186 L8.79111319,89.4216 C8.62705319,89.55441 8.47080319,89.69504 8.32627319,89.84348 C5.94737319,92.22238 5.84187319,95.99188 8.09580319,98.24578 C9.14660319,99.29658 10.5646032,99.87468 12.0880032,99.87468 C13.7130032,99.87468 15.3224032,99.1989 16.5060032,98.01138 C16.6505332,97.86685 16.7872532,97.7145 16.9161632,97.55826 L44.1191632,68.21026 C45.1621632,68.96026 46.1660632,69.13995 46.8808632,69.13995 C48.2246632,69.13995 49.5370632,68.53448 50.6816632,67.39775 L69.9276632,48.15175 C71.3807632,46.69865 71.4198632,44.36655 70.0096932,42.95255 C69.6112532,42.55802 69.1425032,42.26896 68.6268932,42.09317 C68.4589232,41.58926 68.1737732,41.11661 67.7753332,40.71817 C67.4003332,40.34317 66.9511132,40.05801 66.4589332,39.88614 C66.2870532,39.40567 66.0136232,38.95645 65.6308132,38.57364 C65.2362832,38.17911 64.7675332,37.89005 64.2480132,37.71817 C64.0761332,37.20255 63.7831732,36.72989 63.3964532,36.33927 C62.7284832,35.66349 61.8261532,35.29237 60.8612532,35.29237 L60.8615432,35.2929 Z M20.3345432,69.1049 C21.4712432,69.1049 22.5884432,68.72209 23.5533432,68.0111 L26.2369432,70.9759 L28.0689432,69.2767 L24.8853432,65.7611 C24.8853432,65.7611 24.3306532,65.11266 23.5884432,65.11266 C23.2564132,65.11266 22.8892232,65.24157 22.5142432,65.61266 C21.9322132,66.19469 21.1665432,66.60485 20.3306432,66.60485 C19.4283032,66.60485 18.4439432,66.12829 17.5181432,64.87435 C15.7369432,62.46025 3.26414319,44.14035 3.26414319,44.14035 C2.29930319,43.17551 2.22894319,41.67945 3.10398319,40.80445 C3.51414319,40.39429 4.06492319,40.19117 4.62738319,40.19117 C5.26410319,40.19117 5.92818319,40.44898 6.43988319,40.96461 L31.5338832,66.05861 L33.3697832,64.35551 L8.21778319,39.19551 C7.26075319,38.24239 5.95608319,37.69161 4.63578319,37.69161 C3.38188319,37.69161 2.21388319,38.16817 1.34278319,39.03931 C-0.446316807,40.82841 -0.438416807,43.76982 1.31153319,45.71511 C2.63183319,47.65261 13.7885332,64.03111 15.5065332,66.36312 C17.1823332,68.63262 19.0573332,69.10532 20.3346332,69.10532 L20.3345432,69.1049 Z M41.9825432,72.9643 L40.2833432,74.8002 L57.2173432,91.7342 C58.6275432,93.1444 58.7290432,95.328 57.4517232,96.6092 C56.8501632,97.21076 56.0533232,97.50373 55.2251232,97.50373 C54.2915332,97.50373 53.3267232,97.12482 52.5767232,96.37483 C52.4361032,96.23421 52.3111032,96.08577 52.1978132,95.93342 L36.6318132,78.73842 L34.9287132,80.57822 L50.2767132,97.53122 C50.4524932,97.76169 50.6321832,97.96091 50.8118732,98.1445 C51.9915732,99.3242 53.6009732,100 55.2259732,100 C56.7493732,100 58.1673732,99.42188 59.2181732,98.3711 C60.3236732,97.2656 60.9173732,95.707 60.8392732,94.0977 C60.7650532,92.5547 60.1088032,91.086 58.9837732,89.961 L41.9825432,72.9643 Z" id="Page-1" fill="#AAAAAA"></path>
            </g>
        </g>
    </g>
</svg>