<?xml version="1.0" encoding="utf-8"?>
<!-- Generator: Adobe Illustrator 16.0.4, SVG Export Plug-In . SVG Version: 6.00 Build 0)  -->
<!DOCTYPE svg PUBLIC "-//W3C//DTD SVG 1.1//EN" "http://www.w3.org/Graphics/SVG/1.1/DTD/svg11.dtd">
<svg version="1.1" id="Layer_1" xmlns="http://www.w3.org/2000/svg" xmlns:xlink="http://www.w3.org/1999/xlink" x="0px" y="0px"
	 width="90px" height="90px" viewBox="0 0 90 90" enable-background="new 0 0 90 90" xml:space="preserve">
<title>key</title>
<desc>Created with Sketch.</desc>
<circle id="Oval-2" fill="#FFFFFF" cx="21" cy="66" r="8"/>
<path id="Page-1" fill="#35306C" d="M73.601,0L37.699,32.199C34.898,31.398,31.8,31,29.398,31C13.199,31,0,44.199,0,60.5
	S13.199,90,29.301,90c16.102,0,29.301-13.199,29.301-29.5c0-4-0.5-7.398-1.398-10.398L68.402,44.5l-0.004-11.102h10.801V19.699H90V0
	L73.601,0z M86.101,15.699H75.3V29.5H64.601v12.602L52.3,48.301L52.999,50c1.199,2.801,1.801,6.199,1.801,10.5
	c0,14.103-11.398,25.603-25.398,25.603c-14.004,0-25.504-11.5-25.504-25.603c0-14.102,11.398-25.602,25.398-25.602
	c2.398,0,5.5,0.5,8.199,1.398l1.102,0.301L75.101,3.899h11V15.699z M20.999,57c-4.898,0-8.801,4-8.801,8.898
	s3.898,8.898,8.801,8.898c4.898,0,8.801-4,8.801-8.898S25.897,57,20.999,57z M20.999,70.801c-2.699,0-4.898-2.199-4.898-4.898
	s2.199-4.898,4.898-4.898s4.898,2.199,4.898,4.898S23.698,70.801,20.999,70.801z M69.896,15.399c0.699,0.801,0.699,2-0.102,2.801
	L48.299,37.802c-0.398,0.301-0.801,0.5-1.301,0.5S45.896,38.103,45.6,37.7c-0.699-0.801-0.699-2,0.102-2.801l21.5-19.699
	C67.998,14.501,69.197,14.603,69.896,15.399L69.896,15.399z"/>
</svg>
