<?xml version="1.0" encoding="UTF-8"?>
<svg width="90px" height="90px" viewBox="0 0 90 90" version="1.1" xmlns="http://www.w3.org/2000/svg" xmlns:xlink="http://www.w3.org/1999/xlink">
    <!-- Generator: Sketch 44 (41411) - http://www.bohemiancoding.com/sketch -->
    <title>key</title>
    <desc>Created with Sketch.</desc>
    <defs></defs>
    <g id="Inspection" stroke="none" stroke-width="1" fill="none" fill-rule="evenodd">
        <g id="NewInspectionRoomSelection" transform="translate(-750.000000, -614.000000)">
            <g id="key" transform="translate(750.000000, 604.000000)">
                <polygon id="Path-3" fill="#D5D5E6" points="37.4355469 43.9462891 24.418457 43.7138672 13.7680664 48.3935547 5.97412109 57.2138672 2.40039062 71.581543 7.32128906 86.8300781 20.9306641 96.8227539 32.4174805 97.4204102 44.3222656 93.6933594 55.0600586 80.4780273 56.8427734 63.3554688 54.7182617 59.0908203 67.0859375 52.8657227 67.0493164 41.6938477 77.375 41.2290039 77.2084961 27.1894531 87.3183594 27.2006836 87.9365234 11.6899414 74.3901367 11.9165039"></polygon>
                <circle id="Oval-2" fill="#FFFFFF" cx="21" cy="76" r="8"></circle>
                <path d="M73.600804,10.000199 L37.698804,42.199199 C34.898004,41.398419 31.800404,40.999999 29.398004,40.999999 C13.199004,40.999999 0,54.198999 0,70.499999 C0,86.800999 13.199004,100 29.301004,100 C45.403004,100 58.602004,86.800999 58.602004,70.499999 C58.602004,66.499999 58.102004,63.101599 57.203604,60.101999 L68.402604,54.500399 L68.398694,43.398399 L79.199694,43.398399 L79.199694,29.699399 L90.000694,29.699399 L90.000694,10.000399 L73.600804,10.000199 Z M86.100804,25.699199 L75.299804,25.699199 L75.299804,39.500199 L64.600804,39.500199 L64.600804,52.102199 L52.299804,58.301399 L52.999024,60.000599 C54.198224,62.801399 54.799824,66.199799 54.799824,70.500599 C54.799824,84.602599 43.401824,96.102599 29.401824,96.102599 C15.397824,96.102599 3.897821,84.602599 3.897821,70.500599 C3.897821,56.398599 15.295824,44.898599 29.295824,44.898599 C31.694224,44.898599 34.795824,45.398599 37.495024,46.296999 L38.596624,46.597779 L75.100624,13.898779 L86.100624,13.898779 L86.100804,25.699199 Z M20.998804,67.000199 C16.100404,67.000199 12.198004,71.000199 12.198004,75.898599 C12.198004,80.796999 16.096404,84.796999 20.998804,84.796999 C25.897204,84.796999 29.799604,80.796999 29.799604,75.898599 C29.799604,71.000199 25.897304,67.000199 20.998804,67.000199 Z M20.998804,80.801199 C18.299604,80.801199 16.100404,78.601999 16.100404,75.902799 C16.100404,73.203599 18.299604,71.004399 20.998804,71.004399 C23.698004,71.004399 25.897204,73.203599 25.897204,75.902799 C25.897204,78.601999 23.698004,80.801199 20.998804,80.801199 Z M69.896804,25.399199 C70.596024,26.199979 70.596024,27.399199 69.795244,28.199999 L48.299244,47.801999 C47.900804,48.102779 47.498464,48.301999 46.998444,48.301999 C46.498424,48.301999 45.896844,48.102779 45.600044,47.700439 C44.900824,46.899659 44.900824,45.700439 45.701604,44.899639 L67.201604,25.200639 C67.998484,24.501419 69.197704,24.602979 69.896904,25.399859 L69.896804,25.399199 Z" id="Page-1" fill="#AAAAAA"></path>
            </g>
        </g>
    </g>
</svg>