<?xml version="1.0" encoding="UTF-8"?>
<svg width="84px" height="64px" viewBox="0 0 84 64" version="1.1" xmlns="http://www.w3.org/2000/svg" xmlns:xlink="http://www.w3.org/1999/xlink">
    <!-- Generator: Sketch 44 (41411) - http://www.bohemiancoding.com/sketch -->
    <title>Page 1</title>
    <desc>Created with Sketch.</desc>
    <defs></defs>
    <g id="Inspection" stroke="none" stroke-width="1" fill="none" fill-rule="evenodd">
        <g id="NewInspectionRoomSelection" transform="translate(-387.000000, -704.000000)">
            <g id="Page-1" transform="translate(387.000000, 704.000000)">
                <polygon id="Path-2" fill-opacity="0.3" fill="#7673AD" points="34.3007812 62.4082031 33.6933594 39.4472656 49.8710938 39.8769531 50.859375 61.4550781 69.5976562 61.5546875 70.1015625 35.0800781 79.0175781 34.7773438 42.7148438 2.05078125 32.2460938 12.1054688 32.296875 8.5 22.8183594 9.61132812 22.7675781 18.2910156 5.38085938 34.53125 15.0859375 35.328125 15.4238281 61.0585938"></polygon>
                <path d="M41.6682,-0.0001 L39.5002,1.9179 L33.3362,7.3319 L33.3362,7.1639 L20.3352,7.1639 L20.3352,18.8329 L6.5002,31.1639 L0.0002,36.9139 L12.5822,36.9139 L12.5822,63.6639 L70.7502,63.6639 L70.7502,36.9139 L83.3352,36.9139 L76.8362,31.1639 L43.8362,1.9139 L41.6682,-0.0001 Z M41.6682,4.4149 L74.6672,33.6649 L67.4182,33.6649 L67.4182,33.5829 L67.4182,60.3319 L51.5862,60.3319 L51.5862,38.0079 L31.7502,38.0079 L31.7502,60.3319 L15.9182,60.3319 L15.9182,33.5829 L8.7502,33.5829 L23.7502,20.3319 L23.7502,10.4999 L30.1682,10.4999 L30.1682,14.7499 L41.6682,4.4149 Z M35.0002,60.3329 L48.3362,60.3329 L48.3362,41.2579 L35.0002,41.2579 L35.0002,60.3329 Z" id="Fill-2" fill="#AAAAAA"></path>
                <path d="M47.4507,51.587 C47.4507,52.839 46.4367,53.853 45.1847,53.853 C43.9337,53.853 42.9187,52.839 42.9187,51.587 C42.9187,50.336 43.9337,49.321 45.1847,49.321 C46.4367,49.321 47.4507,50.336 47.4507,51.587" id="Fill-3" fill="#FEFEFE"></path>
            </g>
        </g>
    </g>
</svg>