<?xml version="1.0" encoding="utf-8"?>
<!-- Generator: Adobe Illustrator 16.0.4, SVG Export Plug-In . SVG Version: 6.00 Build 0)  -->
<!DOCTYPE svg PUBLIC "-//W3C//DTD SVG 1.1//EN" "http://www.w3.org/Graphics/SVG/1.1/DTD/svg11.dtd">
<svg version="1.1" id="Layer_1" xmlns="http://www.w3.org/2000/svg" xmlns:xlink="http://www.w3.org/1999/xlink" x="0px" y="0px"
	 width="84px" height="64px" viewBox="0 0 84 64" enable-background="new 0 0 84 64" xml:space="preserve">
<title>Page 1</title>
<desc>Created with Sketch.</desc>
<path id="Fill-2" fill="#35306C" d="M41.668,0L39.5,1.918l-6.164,5.414V7.164H20.335v11.669L6.5,31.164L0,36.914h12.582v26.75H70.75
	v-26.75h12.585l-6.499-5.75l-33-29.25L41.668,0z M41.668,4.415l32.999,29.25h-7.249v-0.082v26.749H51.586V38.008H31.75v22.324
	H15.918V33.583H8.75l15-13.251V10.5h6.418v4.25L41.668,4.415z M48.625,60.125H34.75v-19.5h13.875V60.125z"/>
<path id="Fill-3" fill="#35306C" d="M47.451,49.837c0,1.252-1.016,2.267-2.268,2.267c-1.25,0-2.266-1.015-2.266-2.267
	c0-1.251,1.016-2.267,2.266-2.267C46.438,47.57,47.451,48.586,47.451,49.837"/>
</svg>
