<?xml version="1.0" encoding="UTF-8"?>
<svg width="90px" height="90px" viewBox="0 0 90 90" version="1.1" xmlns="http://www.w3.org/2000/svg" xmlns:xlink="http://www.w3.org/1999/xlink">
    <!-- Generator: Sketch 43.2 (39069) - http://www.bohemiancoding.com/sketch -->
    <title>Page 1</title>
    <desc>Created with Sketch.</desc>
    <defs></defs>
    <g id="Inspection" stroke="none" stroke-width="1" fill="none" fill-rule="evenodd">
        <g id="NewInspectionRoomSelection" transform="translate(-652.000000, -19.000000)" fill="#AAAAAA">
            <path d="M725.600804,19.000199 L689.698804,51.199199 C686.898004,50.398419 683.800404,49.999999 681.398004,49.999999 C665.199004,49.999999 652,63.198999 652,79.499999 C652,95.800999 665.199004,109 681.301004,109 C697.403004,109 710.602004,95.800999 710.602004,79.499999 C710.602004,75.499999 710.102004,72.101599 709.203604,69.101999 L720.402604,63.500399 L720.398694,52.398399 L731.199694,52.398399 L731.199694,38.699399 L742.000694,38.699399 L742.000694,19.000399 L725.600804,19.000199 Z M738.100804,34.699199 L727.299804,34.699199 L727.299804,48.500199 L716.600804,48.500199 L716.600804,61.102199 L704.299804,67.301399 L704.999024,69.000599 C706.198224,71.801399 706.799824,75.199799 706.799824,79.500599 C706.799824,93.602599 695.401824,105.102599 681.401824,105.102599 C667.397824,105.102599 655.897821,93.602599 655.897821,79.500599 C655.897821,65.398599 667.295824,53.898599 681.295824,53.898599 C683.694224,53.898599 686.795824,54.398599 689.495024,55.296999 L690.596624,55.597779 L727.100624,22.898779 L738.100624,22.898779 L738.100804,34.699199 Z M672.998804,76.000199 C668.100404,76.000199 664.198004,80.000199 664.198004,84.898599 C664.198004,89.796999 668.096404,93.796999 672.998804,93.796999 C677.897204,93.796999 681.799604,89.796999 681.799604,84.898599 C681.799604,80.000199 677.897304,76.000199 672.998804,76.000199 Z M672.998804,89.801199 C670.299604,89.801199 668.100404,87.601999 668.100404,84.902799 C668.100404,82.203599 670.299604,80.004399 672.998804,80.004399 C675.698004,80.004399 677.897204,82.203599 677.897204,84.902799 C677.897204,87.601999 675.698004,89.801199 672.998804,89.801199 Z M721.896804,34.399199 C722.596024,35.199979 722.596024,36.399199 721.795244,37.199999 L700.299244,56.801999 C699.900804,57.102779 699.498464,57.301999 698.998444,57.301999 C698.498424,57.301999 697.896844,57.102779 697.600044,56.700439 C696.900824,55.899659 696.900824,54.700439 697.701604,53.899639 L719.201604,34.200639 C719.998484,33.501419 721.197704,33.602979 721.896904,34.399859 L721.896804,34.399199 Z" id="Page-1"></path>
        </g>
    </g>
</svg>