<?xml version="1.0" encoding="utf-8"?>
<!-- Generator: Adobe Illustrator 16.0.4, SVG Export Plug-In . SVG Version: 6.00 Build 0)  -->
<!DOCTYPE svg PUBLIC "-//W3C//DTD SVG 1.1//EN" "http://www.w3.org/Graphics/SVG/1.1/DTD/svg11.dtd">
<svg version="1.1" id="Layer_1" xmlns="http://www.w3.org/2000/svg" xmlns:xlink="http://www.w3.org/1999/xlink" x="0px" y="0px"
	 width="26.067px" height="26.152px" viewBox="0 0 26.067 26.152" enable-background="new 0 0 26.067 26.152" xml:space="preserve">
<circle fill="none" stroke="#7674AE" stroke-miterlimit="10" cx="9.675" cy="9.675" r="9.175"/>
<circle fill="none" stroke="#7674AE" stroke-miterlimit="10" cx="9.704" cy="9.586" r="6.546"/>
<g>
	<path fill="none" stroke="#7674AE" stroke-width="0.9989" stroke-miterlimit="10" d="M17.633,14.347l7.356,7.474
		c0.771,0.784,0.771,2.066,0.002,2.85l-0.388,0.394c-0.77,0.783-2.033,0.784-2.804,0.002l-7.384-7.479"/>
</g>
<path fill="#7674AE" d="M9.346,4.751l0.056,1.222L9.314,5.977C7.27,6.069,5.691,7.806,5.782,9.84l0.002,0.039L4.689,9.928
	C4.677,9.899,4.675,9.861,4.673,9.83C4.614,8.49,5.108,7.253,5.948,6.332c0.841-0.919,2.028-1.521,3.368-1.581H9.346z"/>
</svg>
