<?xml version="1.0" encoding="utf-8"?>
<!-- Generator: Adobe Illustrator 16.0.4, SVG Export Plug-In . SVG Version: 6.00 Build 0)  -->
<!DOCTYPE svg PUBLIC "-//W3C//DTD SVG 1.1//EN" "http://www.w3.org/Graphics/SVG/1.1/DTD/svg11.dtd">
<svg version="1.1" id="Layer_1" xmlns="http://www.w3.org/2000/svg" xmlns:xlink="http://www.w3.org/1999/xlink" x="0px" y="0px"
	 width="65px" height="78px" viewBox="0 0 65 78" enable-background="new 0 0 65 78" xml:space="preserve">
<title>Kitchen</title>
<desc>Created with Sketch.</desc>
<path id="Fill-1" fill="#35306C" d="M60.381,13.621h-0.95l-0.003-9.62c0-1.905-1.523-3.522-3.523-3.522L8.478,0.476
	c-1.905,0-3.522,1.523-3.522,3.522v9.62H4.382c-2.38,0-4.286,1.905-4.286,4.286V73.33c0,2.38,1.905,4.285,4.286,4.285h55.906
	c2.38,0,4.286-1.905,4.286-4.285L64.57,20.571v-2.665C64.57,15.522,62.665,13.621,60.381,13.621L60.381,13.621z M7.523,4.001
	c0-0.475,0.382-0.857,0.857-0.857h47.427c0.476,0,0.857,0.382,0.857,0.857v9.62H7.523V4.001z M2.762,17.907
	c0-0.951,0.763-1.621,1.62-1.621h55.906c0.95,0,1.62,0.763,1.62,1.621v1.43L2.762,19.333V17.907z M61.998,73.333
	c0,0.95-0.764,1.62-1.62,1.62H4.379c-0.951,0-1.621-0.764-1.621-1.62l0.003-51.429h59.236V73.333z"/>
<path id="Fill-2" fill="#35306C" d="M12.381,52.762h37.426c1.43,0,2.571-1.143,2.571-2.572V31.43c0-1.43-1.142-2.571-2.571-2.571
	H12.381c-1.43,0-2.571,1.142-2.571,2.571v18.764C9.713,51.619,10.952,52.762,12.381,52.762L12.381,52.762z M12.381,31.43h37.426
	v18.764l-37.426-0.004V31.43z"/>
<path id="Fill-3" fill="#35306C" d="M7.999,73.715h49.238c1.43,0,2.571-1.143,2.571-2.572v-9.619c0-1.43-1.142-2.572-2.571-2.572
	H7.999c-1.43,0-2.572,1.143-2.572,2.572v9.619C5.427,72.572,6.572,73.715,7.999,73.715z M7.999,61.523h49.238v9.619H7.999V61.523z"
	/>
<path id="Fill-4" fill="#35306C" d="M39.713,6.191h-15.14c-0.573,0-0.857,0.476-0.857,1.048v3.144c0,0.572,0.285,1.048,0.857,1.048
	h15.144c0.572,0,0.857-0.476,0.857-1.048V7.239C40.668,6.667,40.379,6.191,39.713,6.191L39.713,6.191z M38.953,9.713H25.43V7.999
	h13.523V9.713z"/>
<path id="Fill-5" fill="#35306C" d="M17.809,6.666c0,2.287-3.429,2.287-3.429,0C14.38,4.379,17.809,4.379,17.809,6.666"/>
<path id="Fill-6" fill="#35306C" d="M17.809,10.667c0,2.284-3.429,2.284-3.429,0C14.38,8.38,17.809,8.38,17.809,10.667"/>
<path id="Fill-7" fill="#35306C" d="M50.479,10.667c0,2.284-3.43,2.284-3.43,0C47.049,8.38,50.479,8.38,50.479,10.667"/>
<path id="Fill-8" fill="#35306C" d="M50.479,6.666c0,2.287-3.43,2.287-3.43,0C47.049,4.379,50.479,4.379,50.479,6.666"/>
</svg>
