<?xml version="1.0" encoding="UTF-8"?>
<svg width="65px" height="78px" viewBox="0 0 65 78" version="1.1" xmlns="http://www.w3.org/2000/svg" xmlns:xlink="http://www.w3.org/1999/xlink">
    <!-- Generator: Sketch 44 (41411) - http://www.bohemiancoding.com/sketch -->
    <title>Kitchen</title>
    <desc>Created with Sketch.</desc>
    <defs></defs>
    <g id="Inspection" stroke="none" stroke-width="1" fill="none" fill-rule="evenodd">
        <g id="NewInspectionRoomSelection" transform="translate(-1059.000000, -521.000000)">
            <g id="Kitchen" transform="translate(1059.000000, 521.000000)">
                <polygon id="Path-5" fill="#D5D5E6" points="11.6865234 31.1416016 12.1347656 51.2431641 50.7011719 51.7519531 50.96875 30.3300781"></polygon>
                <polygon id="Path-5" fill="#D5D5E6" points="24.7275391 7.19726562 24.7275391 10.5419922 40.078125 10.5419922 40.078125 7.19726562"></polygon>
                <path d="M60.3814286,13.6208571 L59.4305143,13.6208571 L59.4271629,4.00114286 C59.4271629,2.09597143 57.9037629,0.4788 55.90482,0.4788 L8.47739143,0.475457143 C6.57222,0.475457143 4.95504857,1.99885714 4.95504857,3.9978 L4.95504857,13.6175057 L4.38250286,13.6175057 C2.00196,13.6175057 0.0967885714,15.5226771 0.0967885714,17.90322 L0.0967885714,73.3295143 C0.0967885714,75.7100537 2.00196,77.6152251 4.38250286,77.6152251 L60.2879314,77.6152251 C62.6684743,77.6152251 64.5736457,75.7100537 64.5736457,73.3295143 L64.5702943,20.5715143 L64.5702943,17.9063143 C64.5702943,15.5224286 62.6651229,13.6206 60.3816943,13.6206 L60.3814286,13.6208571 Z M7.52314286,4.00114286 C7.52314286,3.52569429 7.90483714,3.144 8.38028571,3.144 L55.8077143,3.144 C56.2831629,3.144 56.6648571,3.52569429 56.6648571,4.00114286 L56.6648571,13.6208571 L7.52314286,13.6208571 L7.52314286,4.00114286 Z M2.76197143,17.9065714 C2.76197143,16.9556571 3.52536,16.2860571 4.38248571,16.2860571 L60.2879143,16.2860571 C61.2388286,16.2860571 61.9084286,17.0494457 61.9084286,17.9065714 L61.9084286,19.3362857 L2.76214286,19.3329343 L2.76197143,17.9065714 Z M61.9982571,73.3328571 C61.9982571,74.2837731 61.2348686,74.9533731 60.3777429,74.9533731 L4.37888571,74.9533731 C3.42797143,74.9533731 2.75837143,74.1899846 2.75837143,73.3328571 L2.76172286,21.9042857 L61.9980086,21.9042857 L61.9982571,73.3328571 Z" id="Fill-1" fill="#AAAAAA"></path>
                <path d="M12.3814286,52.7614286 L49.8077143,52.7614286 C51.2374286,52.7614286 52.3791429,51.6197143 52.3791429,50.19 L52.3791429,31.4297143 C52.3791429,30 51.2374286,28.8582857 49.8077143,28.8582857 L12.3814286,28.8582857 C10.9517143,28.8582857 9.81,30 9.81,31.4297143 L9.81,50.1934286 C9.71290286,51.6198 10.9517143,52.7615143 12.3814286,52.7615143 L12.3814286,52.7614286 Z M12.3814286,31.4297143 L49.8077143,31.4297143 L49.8077143,50.1934286 L12.3814286,50.1900857 L12.3814286,31.4297143 Z" id="Fill-2" fill="#AAAAAA"></path>
                <path d="M7.99885714,73.7142857 L57.2374286,73.7142857 C58.6671429,73.7142857 59.8088571,72.5725714 59.8088571,71.1428571 L59.8088571,61.5231429 C59.8088571,60.0934286 58.6671429,58.9517143 57.2374286,58.9517143 L7.99885714,58.9517143 C6.56914286,58.9517143 5.42742857,60.0934286 5.42742857,61.5231429 L5.42742857,71.1428571 C5.42742857,72.5725714 6.57248571,73.7142857 7.99885714,73.7142857 Z M7.99885714,61.5231429 L57.2374286,61.5231429 L57.2374286,71.1428571 L7.99885714,71.1428571 L7.99885714,61.5231429 Z" id="Fill-3" fill="#AAAAAA"></path>
                <path d="M39.7131429,6.19114286 L24.5725714,6.19114286 C24.0000257,6.19114286 23.7154286,6.66659143 23.7154286,7.23917143 L23.7154286,10.3831714 C23.7154286,10.9557171 24.0000257,11.4312 24.5725714,11.4312 L39.7165714,11.4312 C40.2891171,11.4312 40.5737143,10.9557514 40.5737143,10.3831714 L40.5737143,7.23917143 C40.66746,6.66662571 40.37952,6.19114286 39.7132286,6.19114286 L39.7131429,6.19114286 Z M38.9530971,9.71348571 L25.4299543,9.71348571 L25.4299543,7.9992 L38.9530971,7.9992 L38.9530971,9.71348571 Z" id="Fill-4" fill="#AAAAAA"></path>
                <path d="M17.8088571,6.666 C17.8088571,8.95285714 14.3802857,8.95285714 14.3802857,6.666 C14.3802857,4.37914286 17.8088571,4.37914286 17.8088571,6.666" id="Fill-5" fill="#AAAAAA"></path>
                <path d="M17.8088571,10.6671429 C17.8088571,12.9506571 14.3802857,12.9506571 14.3802857,10.6671429 C14.3802857,8.38028571 17.8088571,8.38028571 17.8088571,10.6671429" id="Fill-6" fill="#AAAAAA"></path>
                <path d="M50.478,10.6671429 C50.478,12.9506571 47.0494286,12.9506571 47.0494286,10.6671429 C47.0494286,8.38028571 50.478,8.38028571 50.478,10.6671429" id="Fill-7" fill="#AAAAAA"></path>
                <path d="M50.478,6.666 C50.478,8.95285714 47.0494286,8.95285714 47.0494286,6.666 C47.0494286,4.37914286 50.478,4.37914286 50.478,6.666" id="Fill-8" fill="#AAAAAA"></path>
            </g>
        </g>
    </g>
</svg>