<?xml version="1.0" encoding="utf-8"?>
<!-- Generator: Adobe Illustrator 16.0.4, SVG Export Plug-In . SVG Version: 6.00 Build 0)  -->
<!DOCTYPE svg PUBLIC "-//W3C//DTD SVG 1.1//EN" "http://www.w3.org/Graphics/SVG/1.1/DTD/svg11.dtd">
<svg version="1.1" id="Layer_1" xmlns="http://www.w3.org/2000/svg" xmlns:xlink="http://www.w3.org/1999/xlink" x="0px" y="0px"
	 width="72px" height="78px" viewBox="0 0 72 78" enable-background="new 0 0 72 78" xml:space="preserve">
<title>Page 1 Copy</title>
<desc>Created with Sketch.</desc>
<path id="Fill-1" fill="#2F2A69" d="M12.845,66.777H3.836c-1.501,0-2.742-1.222-2.742-2.732v-2.742c0-1.523,1.216-2.735,2.713-2.735
	h47.737l12.444-16.514c0.907-1.202,2.623-1.443,3.829-0.536l2.188,1.652c1.219,0.914,1.446,2.623,0.538,3.829L56.457,65.691
	c-0.441,0.587-1.424,1.087-2.168,1.087h-1.994l8.611,8.614c0.529,0.526,0.531,1.398,0,1.935c-0.52,0.517-1.408,0.528-1.947-0.013
	L48.424,66.778h-31.71L6.181,77.314c-0.539,0.539-1.414,0.545-1.947,0.013c-0.52-0.52-0.536-1.401-0.003-1.935L12.845,66.777z
	 M3.833,64.042h50.441l14.082-18.688l-2.184-1.648L52.906,61.307H3.833V64.042z"/>
<path id="Fill-2" fill="#2F2A69" d="M23.557,23.166c0.949,1.889,3.207,2.765,5.202,1.959c2.104-0.85,3.117-3.243,2.271-5.343
	c-0.144-0.353-0.128-0.725,0.006-1.049c0.138-0.32,0.398-0.593,0.748-0.734c0.702-0.282,1.498,0.055,1.783,0.757
	c0.85,2.101,3.243,3.118,5.343,2.268c1.998-0.805,3.012-3.005,2.383-5.026L26.146,4.038L23.557,23.166z M43.275,14.077
	c0.192,0.145,0.347,0.34,0.443,0.578c0.846,2.104,3.238,3.117,5.343,2.271c2.101-0.85,3.117-3.242,2.267-5.346
	c-0.141-0.35-0.127-0.725,0.01-1.046c0.139-0.324,0.398-0.593,0.748-0.734c0.699-0.282,1.498,0.055,1.779,0.757
	c0.851,2.101,3.243,3.118,5.348,2.268c1.863-0.753,2.873-2.723,2.484-4.625L30.026,3.625L43.275,14.077z M33.08,24.856
	c-0.738,1.225-1.867,2.229-3.294,2.807c-2.075,0.837-4.32,0.587-6.1-0.488c-0.536,2.011-1.976,3.75-4.051,4.589
	c-2.075,0.837-4.32,0.587-6.1-0.487c-0.536,2.008-1.976,3.749-4.051,4.586c-3.493,1.415-7.47-0.266-8.894-3.752
	c-0.096-0.225-0.131-0.475-0.1-0.715c0.039-0.263,0.138-0.491,0.289-0.683L24.035,0.658c0.301-0.391,0.789-0.587,1.28-0.516
	L62.92,5.607c0.24,0.032,0.471,0.128,0.664,0.276c0.208,0.167,0.355,0.369,0.445,0.597c1.396,3.499-0.298,7.47-3.794,8.88
	c-2.075,0.84-4.32,0.587-6.101-0.488c-0.532,2.011-1.973,3.75-4.047,4.59c-2.078,0.837-4.324,0.587-6.101-0.488
	c-0.536,2.008-1.976,3.75-4.051,4.586c-1.431,0.578-2.938,0.638-4.32,0.27l14.358,35.536c0.276,0.687-0.061,1.487-0.76,1.773
	c-0.68,0.272-1.498-0.055-1.779-0.747L33.08,24.856z"/>
<path id="Fill-2_1_" fill="#F5F5FC" d="M20.889,22.756c-0.038,0.234-0.013,0.481,0.083,0.719c0.85,2.104-0.167,4.497-2.271,5.346
	c-2.101,0.847-4.494-0.167-5.343-2.271c-0.282-0.699-1.081-1.039-1.78-0.757c-0.35,0.144-0.609,0.414-0.747,0.734
	c-0.138,0.324-0.151,0.699-0.01,1.049c0.85,2.101-0.167,4.493-2.268,5.343c-1.866,0.754-3.961,0.039-5.003-1.6L23.157,6.03
	L20.889,22.756z"/>
</svg>
