<?xml version="1.0" encoding="UTF-8"?>
<svg width="28px" height="30px" viewBox="0 0 28 30" version="1.1" xmlns="http://www.w3.org/2000/svg" xmlns:xlink="http://www.w3.org/1999/xlink">
    <!-- Generator: Sketch 43.2 (39069) - http://www.bohemiancoding.com/sketch -->
    <title>Page 1 Copy 12</title>
    <desc>Created with Sketch.</desc>
    <defs></defs>
    <g id="Inspection" stroke="none" stroke-width="1" fill="none" fill-rule="evenodd">
        <g id="NewInspection-Copy-2" transform="translate(-70.000000, -213.000000)" fill="#AAAAAA">
            <g id="Page-1-Copy-12" transform="translate(70.000000, 213.000000)">
                <path d="M4.99521073,25.7283662 L1.4916986,25.7283662 C0.908014049,25.7283662 0.425351213,25.2575611 0.425351213,24.6755632 L0.425351213,23.619059 C0.425351213,23.0320947 0.898052363,22.5650223 1.4804917,22.5650223 L20.0440294,22.5650223 L24.8831098,16.202525 C25.2360792,15.7391537 25.9033206,15.6464668 26.3722861,15.9961654 L27.2228927,16.6325416 C27.6968391,16.9847202 27.7853768,17.643335 27.4324234,18.1079716 L21.9547733,25.3097125 C21.7826596,25.5358432 21.4010057,25.7286067 21.1116699,25.7286067 L20.3359036,25.7286067 L23.6845626,29.0476203 C23.8903512,29.2502725 23.8915996,29.5863748 23.6845626,29.7927534 C23.482516,29.9917013 23.137053,29.9966425 22.9275064,29.7878103 L18.8304438,25.7285655 L6.49934547,25.7285655 L2.40356003,29.7878103 C2.19402937,29.9954069 1.8535281,29.9978775 1.64650383,29.7927534 C1.44445722,29.5925719 1.43822158,29.2527652 1.64525862,29.0476203 L4.99521073,25.7283662 Z M1.49042146,24.6743295 L21.105364,24.6743295 L26.5817369,17.473854 L25.7323755,16.8387115 L20.5740102,23.620356 L1.4903576,23.620356 L1.49042146,24.6743295 Z" id="Fill-1"></path>
                <path d="M8.08684547,8.92419884 C8.07187739,9.01440566 8.08185504,9.10955367 8.11927203,9.2009942 C8.44979566,10.0116092 8.05441571,10.9334485 7.23625798,11.2608895 C6.41933589,11.5870968 5.48890805,11.196635 5.15841635,10.3860263 C5.0486622,10.1166459 4.73810983,9.98566952 4.4662069,10.0944011 C4.33026181,10.1500069 4.22923691,10.2538067 4.17560664,10.3773745 C4.12197637,10.5021792 4.11698914,10.6467549 4.17186462,10.7814325 C4.50238825,11.5908137 4.10701149,12.512653 3.29009579,12.840094 C2.56423372,13.1304824 1.74980204,12.8549239 1.34443806,12.2234888 L8.96863985,2.47997573 L8.08684547,8.92419884 Z M9.16069604,8.92543572 C9.52985313,9.65326517 10.4078863,9.99060754 11.1836526,9.68043857 C12.0018199,9.35296593 12.3959451,8.43115829 12.0666667,7.62177701 C12.0105428,7.48584993 12.0167784,7.34251105 12.0691603,7.21771905 C12.1227905,7.09415127 12.2238155,6.98911455 12.3597605,6.93474561 C12.6328991,6.82600458 12.9421999,6.95575043 13.0532152,7.22637088 C13.3837388,8.03575216 14.3141347,8.42747295 15.1310568,8.10000031 C15.9080683,7.78984083 16.3021935,6.94214159 16.0577171,6.16366649 L10.1672318,1.55589362 L9.16069604,8.92543572 Z M16.8286398,5.42357896 C16.9034738,5.47918477 16.9633397,5.55456169 17.0007535,5.64600222 C17.33,6.45661721 18.2604278,6.84710429 19.0785951,6.52086537 C19.8955172,6.19339273 20.2908876,5.27158509 19.960364,4.4609701 C19.9054853,4.32627989 19.9104757,4.18170414 19.964106,4.05814585 C20.0177363,3.93334119 20.1187612,3.82954135 20.2547063,3.77517241 C20.5265964,3.66643138 20.8371456,3.79617723 20.9469157,4.06679768 C21.2774393,4.87617896 22.2078352,5.26789975 23.0260026,4.94042711 C23.7506194,4.65003873 24.1434994,3.89132524 23.9925734,3.15856092 L11.6764815,1.39646582 L16.8286398,5.42357896 Z M12.8637612,9.57677475 C12.5769029,10.0488137 12.1378991,10.435568 11.5828863,10.6580165 C10.7759579,10.9805227 9.90290549,10.8841473 9.21069604,10.4701911 C9.00241379,11.244965 8.44243295,11.9147149 7.63547254,12.2384548 C6.82854406,12.5609609 5.9554917,12.4645855 5.26328225,12.0506294 C5.055,12.8241696 4.49501916,13.4951532 3.68805875,13.8176593 C2.32985313,14.362614 0.783301405,13.7150964 0.229565773,12.3719018 C0.192148787,12.2854024 0.178429119,12.1890207 0.190903576,12.0963433 C0.205871648,11.9950172 0.244533844,11.907281 0.303151341,11.833141 L9.34657407,0.253604657 C9.46381226,0.10285083 9.65338761,0.0274739169 9.84421137,0.0546568032 L24.4677746,2.16026285 C24.5613155,2.172619 24.6511143,2.2096906 24.7259451,2.26653329 C24.8070147,2.33079094 24.8643838,2.40863845 24.8993072,2.49637151 C25.4418359,3.84450728 24.7833174,5.37431571 23.4238602,5.91787853 C22.6169317,6.24161839 21.7438793,6.14400927 21.0516699,5.73005311 C20.8446328,6.50482706 20.284652,7.17457693 19.4776916,7.49831679 C18.6695179,7.82082293 17.7964655,7.72444753 17.1055013,7.31049136 C16.897219,8.08403159 16.3372382,8.75501519 15.5302778,9.07752133 C14.9740198,9.29994776 14.3878448,9.32342317 13.8502969,9.18132117 L19.4339496,22.8727238 C19.5412101,23.1371631 19.4102522,23.4460857 19.1383621,23.5560762 C18.8739559,23.6611098 18.5559227,23.5350714 18.4461526,23.2681584 L12.8637612,9.57677475 Z" id="Fill-2"></path>
            </g>
        </g>
    </g>
</svg>