<?xml version="1.0" encoding="UTF-8"?>
<svg width="98px" height="64px" viewBox="0 0 98 64" version="1.1" xmlns="http://www.w3.org/2000/svg" xmlns:xlink="http://www.w3.org/1999/xlink">
    <!-- Generator: Sketch 44 (41411) - http://www.bohemiancoding.com/sketch -->
    <title>Couch</title>
    <desc>Created with Sketch.</desc>
    <defs></defs>
    <g id="Inspection" stroke="none" stroke-width="1" fill="none" fill-rule="evenodd">
        <g id="NewInspectionRoomSelection" transform="translate(-537.000000, -53.000000)">
            <g id="Couch" transform="translate(537.000000, 17.000000)">
                <polygon id="Path-11" fill="#D5D5E6" points="8.83789062 43.2646484 14.03125 38.1904297 84.8222656 38.9414062 89.4511719 43.3203125 90.1181641 58.4091797 96.4570312 62.9863281 96.3125 85.53125 90.8789062 89.8720703 6.19824219 89.1191406 2.10644531 85.1210938 2.02832031 62.9082031 8.109375 58.4570312"></polygon>
                <path d="M91.836297,57.3518 L91.836297,44.9028 C91.836297,40.4145 88.164397,36.7387 83.672197,36.7387 L14.285197,36.7387 C9.796897,36.7387 6.1211,40.4106 6.1211,44.9028 L6.1211,57.3518 C2.6523,58.16821 0,61.4338 0,65.3127 L0,83.6757 C0,88.164 3.6719,91.8398 8.1641,91.8398 L13.265697,91.8398 L13.265697,97.9609 C13.265697,99.1836 14.082107,100 15.304797,100 L27.550797,100 C28.773497,100 29.589897,99.18359 29.589897,97.9609 L29.589897,91.8398 L68.366897,91.8398 L68.366897,97.9609 C68.366897,99.1836 69.183307,100 70.405997,100 L82.651997,100 C83.874697,100 84.691097,99.18359 84.691097,97.9609 L84.691097,91.8398 L89.792697,91.8398 C94.280997,91.8398 97.956797,88.1679 97.956797,83.6757 L97.956797,65.1057 C97.960707,61.4338 95.308397,58.1682 91.835697,57.3518 L91.836297,57.3518 Z M87.758197,44.9028 L87.758197,57.3518 C84.289397,58.16821 81.637097,61.4338 81.637097,65.3127 L81.633197,71.4338 C81.633197,73.6799 79.797297,75.5158 77.551197,75.5158 L51.020197,75.5158 L51.020197,40.8208 L83.672197,40.8208 C85.918297,40.8208 87.758097,42.6567 87.758097,44.9028 L87.758197,44.9028 Z M14.285197,40.8208 L46.937197,40.8208 L46.937197,75.5158 L20.406197,75.5158 C18.160097,75.5158 16.324197,73.6799 16.324197,71.4338 L16.324197,65.1057 C16.324197,61.2268 13.671897,58.1682 10.203097,57.1448 L10.203097,44.9028 C10.203097,42.6567 12.042897,40.8208 14.285097,40.8208 L14.285197,40.8208 Z M25.512197,95.9228 L17.348097,95.9228 L17.348097,91.8408 L25.512197,91.8408 L25.512197,95.9228 Z M80.614207,95.9228 L72.450107,95.9228 L72.450107,91.8408 L80.614207,91.8408 L80.614207,95.9228 Z M93.880197,83.6768 C93.880197,85.9229 92.044297,87.7588 89.798207,87.7588 L8.165199,87.7588 C5.919099,87.7588 4.083199,85.9229 4.083199,83.6768 L4.083199,65.1068 C4.083199,62.8607 5.919099,61.0248 8.165199,61.0248 C10.411297,61.0248 12.247197,62.8607 12.247197,65.1068 L12.247197,71.4349 C12.247197,75.9232 15.919097,79.599 20.411297,79.599 L77.556297,79.599 C82.044597,79.599 85.720397,75.9271 85.720397,71.4349 L85.720397,65.1068 C85.720397,62.8607 87.556297,61.0248 89.802397,61.0248 C92.048497,61.0248 93.884397,62.8607 93.884397,65.1068 L93.880197,83.6768 Z" id="Page-1" fill="#AAAAAA"></path>
            </g>
        </g>
    </g>
</svg>