<?xml version="1.0" encoding="UTF-8"?>
<svg width="98px" height="64px" viewBox="0 0 98 64" version="1.1" xmlns="http://www.w3.org/2000/svg" xmlns:xlink="http://www.w3.org/1999/xlink">
    <!-- Generator: Sketch 43.2 (39069) - http://www.bohemiancoding.com/sketch -->
    <title>Page 1</title>
    <desc>Created with Sketch.</desc>
    <defs></defs>
    <g id="Inspection" stroke="none" stroke-width="1" fill="none" fill-rule="evenodd">
        <g id="NewInspectionRoomSelection" transform="translate(-537.000000, -53.000000)" fill="#AAAAAA">
            <path d="M628.836297,74.3518 L628.836297,61.9028 C628.836297,57.4145 625.164397,53.7387 620.672197,53.7387 L551.285197,53.7387 C546.796897,53.7387 543.1211,57.4106 543.1211,61.9028 L543.1211,74.3518 C539.6523,75.16821 537,78.4338 537,82.3127 L537,100.6757 C537,105.164 540.6719,108.8398 545.1641,108.8398 L550.265697,108.8398 L550.265697,114.9609 C550.265697,116.1836 551.082107,117 552.304797,117 L564.550797,117 C565.773497,117 566.589897,116.18359 566.589897,114.9609 L566.589897,108.8398 L605.366897,108.8398 L605.366897,114.9609 C605.366897,116.1836 606.183307,117 607.405997,117 L619.651997,117 C620.874697,117 621.691097,116.18359 621.691097,114.9609 L621.691097,108.8398 L626.792697,108.8398 C631.280997,108.8398 634.956797,105.1679 634.956797,100.6757 L634.956797,82.1057 C634.960707,78.4338 632.308397,75.1682 628.835697,74.3518 L628.836297,74.3518 Z M624.758197,61.9028 L624.758197,74.3518 C621.289397,75.16821 618.637097,78.4338 618.637097,82.3127 L618.633197,88.4338 C618.633197,90.6799 616.797297,92.5158 614.551197,92.5158 L588.020197,92.5158 L588.020197,57.8208 L620.672197,57.8208 C622.918297,57.8208 624.758097,59.6567 624.758097,61.9028 L624.758197,61.9028 Z M551.285197,57.8208 L583.937197,57.8208 L583.937197,92.5158 L557.406197,92.5158 C555.160097,92.5158 553.324197,90.6799 553.324197,88.4338 L553.324197,82.1057 C553.324197,78.2268 550.671897,75.1682 547.203097,74.1448 L547.203097,61.9028 C547.203097,59.6567 549.042897,57.8208 551.285097,57.8208 L551.285197,57.8208 Z M562.512197,112.9228 L554.348097,112.9228 L554.348097,108.8408 L562.512197,108.8408 L562.512197,112.9228 Z M617.614207,112.9228 L609.450107,112.9228 L609.450107,108.8408 L617.614207,108.8408 L617.614207,112.9228 Z M630.880197,100.6768 C630.880197,102.9229 629.044297,104.7588 626.798207,104.7588 L545.165199,104.7588 C542.919099,104.7588 541.083199,102.9229 541.083199,100.6768 L541.083199,82.1068 C541.083199,79.8607 542.919099,78.0248 545.165199,78.0248 C547.411297,78.0248 549.247197,79.8607 549.247197,82.1068 L549.247197,88.4349 C549.247197,92.9232 552.919097,96.599 557.411297,96.599 L614.556297,96.599 C619.044597,96.599 622.720397,92.9271 622.720397,88.4349 L622.720397,82.1068 C622.720397,79.8607 624.556297,78.0248 626.802397,78.0248 C629.048497,78.0248 630.884397,79.8607 630.884397,82.1068 L630.880197,100.6768 Z" id="Page-1"></path>
        </g>
    </g>
</svg>