<?xml version="1.0" encoding="utf-8"?>
<!-- Generator: Adobe Illustrator 16.0.4, SVG Export Plug-In . SVG Version: 6.00 Build 0)  -->
<!DOCTYPE svg PUBLIC "-//W3C//DTD SVG 1.1//EN" "http://www.w3.org/Graphics/SVG/1.1/DTD/svg11.dtd">
<svg version="1.1" id="Layer_1" xmlns="http://www.w3.org/2000/svg" xmlns:xlink="http://www.w3.org/1999/xlink" x="0px" y="0px"
	 width="98px" height="64px" viewBox="0 0 98 64" enable-background="new 0 0 98 64" xml:space="preserve">
<title>Couch</title>
<desc>Created with Sketch.</desc>
<g id="Couch" transform="translate(537.000000, 17.000000)">
	<path id="Page-1" fill="#35306C" d="M-445.164,4.352V-8.097c0-4.488-3.672-8.164-8.164-8.164h-69.387
		c-4.488,0-8.164,3.672-8.164,8.164V4.352C-534.348,5.168-537,8.434-537,12.312v18.363c0,4.488,3.672,8.164,8.164,8.164h5.102v6.121
		c0,1.223,0.816,2.039,2.039,2.039h12.246c1.223,0,2.039-0.816,2.039-2.039V38.84h38.777v6.121c0,1.223,0.816,2.039,2.039,2.039
		h12.246c1.223,0,2.039-0.816,2.039-2.039V38.84h5.102c4.488,0,8.164-3.672,8.164-8.164v-18.57
		C-439.039,8.434-441.691,5.168-445.164,4.352L-445.164,4.352z M-449.242-8.097V4.352c-3.469,0.816-6.121,4.082-6.121,7.961
		l-0.004,6.121c0,2.246-1.836,4.082-4.082,4.082h-26.531v-34.695h32.652C-451.082-12.179-449.242-10.343-449.242-8.097
		L-449.242-8.097z M-522.715-12.179h32.652v34.695h-26.531c-2.246,0-4.082-1.836-4.082-4.082v-6.328c0-3.879-2.652-6.938-6.121-7.96
		V-8.097C-526.797-10.343-524.957-12.179-522.715-12.179L-522.715-12.179z M-511.488,42.923h-8.164v-4.082h8.164V42.923z
		 M-456.386,42.923h-8.164v-4.082h8.164V42.923z M-443.119,30.677c0,2.246-1.836,4.082-4.082,4.082h-81.634
		c-2.246,0-4.082-1.836-4.082-4.082v-18.57c0-2.246,1.836-4.082,4.082-4.082s4.082,1.836,4.082,4.082v6.329
		c0,4.488,3.672,8.164,8.164,8.164h57.146c4.488,0,8.164-3.672,8.164-8.164v-6.329c0-2.246,1.836-4.082,4.082-4.082
		s4.082,1.836,4.082,4.082L-443.119,30.677z"/>
</g>
</svg>
