<?xml version="1.0" encoding="utf-8"?>
<!-- Generator: Adobe Illustrator 16.0.4, SVG Export Plug-In . SVG Version: 6.00 Build 0)  -->
<!DOCTYPE svg PUBLIC "-//W3C//DTD SVG 1.1//EN" "http://www.w3.org/Graphics/SVG/1.1/DTD/svg11.dtd">
<svg version="1.1" id="Layer_1" xmlns="http://www.w3.org/2000/svg" xmlns:xlink="http://www.w3.org/1999/xlink" x="0px" y="0px"
	 width="64px" height="64px" viewBox="0 0 64 64" enable-background="new 0 0 64 64" xml:space="preserve">
<g id="Layer_x0020_1">
	<path fill="#7674AE" d="M43.935,40.828v22.13v0.999h-0.999H0.999H0.007v-0.999V1.042V0.043h0.992h29.956h0.417l0.291,0.291
		l11.981,11.981l0.291,0.292v0.417v10.076l3.413-5.809l0.504-0.854L54.46,5.19c0.96-1.627,2.601-2.051,4.188-1.72h0.006
		c0.569,0.119,1.131,0.344,1.647,0.648c0.517,0.298,0.985,0.682,1.362,1.118h0.008c0.866,0.999,1.316,2.276,0.932,3.599
		c0.973,0.748,2.236,2.342,0.636,5.061L56.663,25.09c-0.139,0.238-0.364,0.397-0.608,0.457l0,0l-1.369,0.357
		c-0.529,0.139-1.078-0.179-1.211-0.714c-0.139-0.529,0.179-1.079,0.715-1.211l0.973-0.251l6.363-10.836
		c0.622-1.065,0.438-1.767,0.119-2.19l-6.047,10.288L43.935,40.836V40.828z M32.218,47.781l-1.224,6.213l4.83-4.089l-3.606-2.117
		V47.781z M28.487,56.402l2.044-10.381h0.007c0.02-0.105,0.06-0.211,0.119-0.311l0.013-0.026l11.266-19.179V14.028H30.955
		c-0.549,0-0.999-0.45-0.999-0.999v-0.027V2.048H1.991v59.918h39.945V44.236l-3.499,5.953l-0.014,0.02l-0.014,0.021
		c-0.059,0.106-0.139,0.205-0.23,0.291l-8.052,6.821c-0.225,0.198-0.536,0.297-0.854,0.238c-0.542-0.106-0.893-0.629-0.787-1.172
		V56.402z M32.873,45.856l4.313,2.534L53.382,20.83l-4.313-2.534L32.88,45.856H32.873z M50.074,16.582l4.312,2.534l6.067-10.327
		l0.013-0.02l0.047-0.08l0.006-0.006c0.41-0.741,0.18-1.535-0.35-2.137l0,0c-0.245-0.278-0.543-0.523-0.873-0.715
		c-0.324-0.192-0.688-0.337-1.053-0.41l0,0c-0.801-0.165-1.621,0.02-2.064,0.774l-6.105,10.393V16.582z M21.971,58.963h13.02v1.997
		h-13.02V58.963z M5.994,29.006h21.435v1.998H5.994V29.006z M5.994,25.011h31.954v1.998H5.994V25.011z M5.994,21.015h31.954v1.998
		H5.994V21.015z M5.994,17.019h31.954v1.998H5.994V17.019z M40.527,12.024L31.954,3.45v8.574H40.527z"/>
</g>
</svg>
